<?xml version="1.0" encoding="utf-8"?>
<svg version="1.1" id="Layer_1" focusable="false" xmlns="http://www.w3.org/2000/svg" xmlns:xlink="http://www.w3.org/1999/xlink"
	 x="0px" y="0px" viewBox="0 0 32 32" style="enable-background:new 0 0 32 32;" xml:space="preserve">
<path d="M24.9,22c-0.3,0.7-0.7,1.4-1.1,2.1c-0.6,0.9-1.1,1.5-1.5,1.8c-0.6,0.5-1.2,0.8-1.9,0.8c-0.5,0-1.1-0.1-1.8-0.4
	c-0.7-0.3-1.3-0.4-1.9-0.4c-0.6,0-1.2,0.1-1.9,0.4c-0.7,0.3-1.3,0.4-1.7,0.4c-0.6,0-1.3-0.3-1.9-0.9c-0.4-0.4-0.9-1-1.5-1.8
	C9,23,8.4,21.9,8,20.7c-0.5-1.3-0.7-2.6-0.7-3.9c0-1.4,0.3-2.7,0.9-3.7c0.5-0.8,1.1-1.5,1.9-2c0.8-0.5,1.7-0.7,2.6-0.7
	c0.5,0,1.2,0.2,2,0.5c0.8,0.3,1.4,0.5,1.6,0.5c0.2,0,0.8-0.2,1.8-0.6c1-0.3,1.8-0.5,2.4-0.4c1.8,0.1,3.1,0.9,4,2.1
	c-1.6,1-2.4,2.3-2.4,4.1c0,1.4,0.5,2.5,1.5,3.4c0.4,0.4,0.9,0.7,1.5,1C25.2,21.3,25.1,21.6,24.9,22z M20.8,5.8c0,1.1-0.4,2.1-1.2,3
	c-0.9,1.1-2.1,1.7-3.3,1.6c0-0.1,0-0.3,0-0.4c0-1,0.4-2.1,1.2-3c0.4-0.5,0.9-0.8,1.5-1.1c0.6-0.3,1.2-0.5,1.7-0.5
	C20.8,5.5,20.8,5.6,20.8,5.8z"/>
</svg>
