<?xml version="1.0" encoding="utf-8"?>
<!-- Generator: Adobe Illustrator 27.5.0, SVG Export Plug-In . SVG Version: 6.00 Build 0)  -->
<svg version="1.1" id="Layer_1" focusable="false" xmlns="http://www.w3.org/2000/svg" xmlns:xlink="http://www.w3.org/1999/xlink"
	 x="0px" y="0px" viewBox="0 0 24 24" style="enable-background:new 0 0 24 24;" xml:space="preserve">
<path d="M11.8,4C6.5,4,4,6.5,4,11.8s2.5,7.8,7.8,7.8s7.8-2.5,7.8-7.8S17,4,11.8,4z M17.5,8.5h-2.6c-0.1-0.9-0.3-1.8-0.6-2.7
	C15.7,6.1,16.9,7.1,17.5,8.5L17.5,8.5z M18,11.8c0,0.6,0,1.2-0.1,1.8H15c0-0.6,0-1.2,0-1.8s0-1.2,0-1.8h2.9C18,10.6,18,11.2,18,11.8
	z M11.8,18c-0.6,0-1.3-0.4-1.6-3h3.2C13.1,17.6,12.4,18,11.8,18z M10,13.5c0-0.5,0-1.1,0-1.8s0-1.2,0-1.8h3.4c0,0.5,0,1.1,0,1.8
	s0,1.2,0,1.8H10z M5.5,11.8c0-0.6,0-1.2,0.1-1.8h2.9c0,0.6,0,1.2,0,1.8s0,1.2,0,1.8H5.6C5.5,12.9,5.5,12.3,5.5,11.8z M11.8,5.5
	c0.6,0,1.3,0.4,1.6,3h-3.2C10.4,5.9,11.1,5.5,11.8,5.5z M9.3,5.8C8.9,6.7,8.7,7.6,8.6,8.5H6C6.6,7.1,7.8,6.1,9.3,5.8z M6,15h2.6
	c0.1,0.9,0.3,1.8,0.6,2.7C7.8,17.4,6.6,16.4,6,15L6,15z M14.2,17.7c0.3-0.9,0.6-1.8,0.6-2.7h2.6C16.9,16.4,15.7,17.4,14.2,17.7
	L14.2,17.7z"/>
</svg>
