<?xml version="1.0" encoding="utf-8"?>
<!-- Generator: Adobe Illustrator 27.5.0, SVG Export Plug-In . SVG Version: 6.00 Build 0)  -->
<svg version="1.1" id="Layer_1" focusable="false" xmlns="http://www.w3.org/2000/svg" xmlns:xlink="http://www.w3.org/1999/xlink"
	 x="0px" y="0px" viewBox="0 0 32 32" style="enable-background:new 0 0 32 32;" xml:space="preserve">
<path d="M12,24.7c8.1,0,12.5-6.7,12.5-12.5c0-0.2,0-0.4,0-0.6c0.9-0.6,1.6-1.4,2.2-2.3c-0.8,0.4-1.6,0.6-2.5,0.7
	c0.9-0.5,1.6-1.4,1.9-2.4c-0.9,0.5-1.8,0.9-2.8,1.1c-0.8-0.9-2-1.4-3.2-1.4c-2.4,0-4.4,2-4.4,4.4c0,0.3,0,0.7,0.1,1
	c-3.5-0.2-6.8-1.8-9-4.6c-1.2,2-0.6,4.6,1.4,5.8c-0.7,0-1.4-0.2-2-0.5v0.1c0,2.1,1.5,3.9,3.5,4.3c-0.4,0.1-0.8,0.2-1.2,0.2
	c-0.3,0-0.6,0-0.8-0.1c0.6,1.8,2.2,3,4.1,3c-1.6,1.2-3.5,1.9-5.4,1.9c-0.3,0-0.7,0-1-0.1C7.3,24,9.7,24.7,12,24.7z"/>
</svg>
