<?xml version="1.0" encoding="utf-8"?>
<!-- Generator: Adobe Illustrator 27.5.0, SVG Export Plug-In . SVG Version: 6.00 Build 0)  -->
<svg version="1.1" id="Layer_1" focusable="false" xmlns="http://www.w3.org/2000/svg" xmlns:xlink="http://www.w3.org/1999/xlink"
	 x="0px" y="0px" viewBox="0 0 32 32" style="enable-background:new 0 0 32 32;" xml:space="preserve">
<style type="text/css">
	.st0{fill-rule:evenodd;clip-rule:evenodd;fill:#FFFFFF;}
</style>
<path class="st0" d="M25.5,9.8c0.3,0.3,0.6,0.7,0.7,1.2c0.4,1.7,0.4,5.1,0.4,5.1s0,3.5-0.4,5.1c-0.2,0.9-1,1.6-1.9,1.9
	c-1.7,0.4-8.3,0.4-8.3,0.4s-6.7,0-8.3-0.4c-0.9-0.2-1.6-1-1.9-1.9c-0.4-1.7-0.4-5.1-0.4-5.1s0-3.5,0.4-5.1c0.2-0.9,1-1.6,1.9-1.9
	C9.3,8.7,16,8.7,16,8.7s6.7,0,8.3,0.5C24.8,9.2,25.2,9.5,25.5,9.8z M19.4,16.1l-5.5-3.2v6.4L19.4,16.1z"/>
</svg>
