<?xml version="1.0" encoding="utf-8"?>
<!-- Generator: Adobe Illustrator 27.5.0, SVG Export Plug-In . SVG Version: 6.00 Build 0)  -->
<svg version="1.1" xmlns="http://www.w3.org/2000/svg" xmlns:xlink="http://www.w3.org/1999/xlink" x="0px" y="0px"
	 viewBox="0 0 4000 4000" style="enable-background:new 0 0 4000 4000;" xml:space="preserve">
<style type="text/css">
	.st0{opacity:0.59;fill:#FCC500;}
	.st1{opacity:0.92;fill:#EB690B;}
	.st2{fill:#F08600;}
	.st3{opacity:0.5;}
	.st4{opacity:0.52;fill:#F08600;}
	.st5{opacity:0.46;fill:#F08600;}
</style>
<g id="_x2014_ÎÓÈ_x5F_1">
</g>
<g id="_x2014_ÎÓÈ_x5F_2">
	<g>
		<path class="st0" d="M3567.6,1864.7c0.4,37.7-1.7,75.2,2.7,104.6c4.4,29.4,15.2,50.9,34.6,62.9c-124.7,107-76.1,338.5,118.2,338.5
			c-72.9,46.3-194.3,0-250.7,81.4c-9.5,11.4-14.3,33.2-16,58.3c-1.2,19.8-0.7,41.4,1.3,64.8c-1.7,23.9-30.9,54.4-73.7,95.9
			c-49.7,93.2-122.6,185.8-74.1,301.6c-48.5-92.6-48.5-185.2-48.5-277.8c-121.5,92.6-170.2,254.7-170.2,393.6
			c0-92.6,0-162.1-4.2-263.6c-13,1-30.5,13.1-47.4,31.8c-16.8,18.7-32.9,43.9-43,70.9c-43.9-0.3-63.5,6.3-14.8-1.1
			c-103,37.4-136.8,61.1-10.5,52.5c-179.7,52.4-243.3,83.8-138,156.3c21.1,14.5,48.9,30.7,83.8,48.9
			c-141.9-26.2-287.7-49.3-409.2,43.2c-145.8,115.8-170.1,301-170.1,463.1c-24.3-138.9-48.6-277.8-3.1-419.5
			c-6.1-22.8-37.3-16.9-81.4,2c-44,18.7-100.9,50.2-171.6,90.5c83-72,111.6-107.9,97.3-120c-14.1-12.2-70.6-0.9-152,17.8
			c11.6-19.9-1.9-31.9-9.7-27.1c-44.6-22.8-83.6-29.5-42.3,37c-51.7-30.4-95-53.7-128.8-61c-33.8-7.3-58.1,1.3-71.9,34.5
			c-44,52.3-92.6,75.4-116.9,144.9c0-46.3,0-115.8-5.5-162.4c-18.2-24.5-36.4-44.9-55.5-61.5c-47.7-41.6-100.5-59.8-169.1-60.9
			c-12.9-1-27.8-2.7-47.5-6.2c-232.6-79.3-548.5-33-621.5,244.8c48.6-231.5,291.6-324.1,505.5-313.4c16.5-8.2,24.2-17.5,27.9-27.1
			c14.9-38.7,1.9-69-19.3-51.8c-52.6-75.2-115.7-100.5-203.1-11.8c63.8-126.1,78.5-144.3,87.7,14.2c-24.3-205.5-55.7-232.6-115-22.5
			c1.4-91.3-0.7-154.9-11.1-191.9c-10.4-37.1-29.1-47.6-60.7-32.9c-66.1-57.3-163.4-80.5-236.3-103.6
			c48.6-46.3,145.8,23.2,121.5-23.1c-97.2-162.1-364.5-115.8-510.3,23.1c97.2-138.9,291.6-162.1,429.6-133.8
			c41.3-22.6,34.9-52.7-1.9-81.1c-26.1-24-69.3-47.2-128.5-72.8c-18.4-10.5-34.9-27.4-40.6-67.7c32.2,44,72.8,42.7,94.8,43.6
			c22,0.9,25.5,4.1,7.3,15.7c26.3-37.3,31.1-66.2,9.3-85.9c-10.9-9.9-28.2-18.6-52-27.3c-26.4-53.8-50.7-77-74.8-124.1
			c56.2,48.4,86,79.3,87.5,77.1c1.5-2.2-27-32.4-91.6-87.2c28.2,34.1,101.1,34.1,76.8,10.9c-24.3-69.5-97.2-162.1-218.7-162.1
			c72.9-23.1,121.5,46.3,194.4,46.3c-72.9-115.7-218.7-162.1-364.5-138.9c121.5,0,267.3,0,364.5,69.5
			c-72.9-115.8-194.4-138.9-315.9-162.1c72.9,0,121.5,0,204.1,34.4c58.2,21.9,84.7,17.7,103.3,8.5c74.3-36.7,61-109.9,11.8-227.7
			c112.9,32.9,139.2-37.2,172.1-109.6c17.2-33.4,35.9-67.4,10.5-85.8c66-48.4,87.4-82.8-7.6-96.7c75-30.9,120.2-57.7,129.9-85.9
			c4.8-14.1,1.3-28.5-10.6-43.7c-30.3-18.6-266.8-91.8-291.1-115c170.1,23.1,649.6,3.7,576.7-204.6c48.6,23.1,72.9,0,97.2-46.3
			c24.4-92.6-199.2-220.7-272.2-267c48.6,23.2,247.9,128.1,296.5,151.3c0-46.3,0-69.4-24.4-115.7c48.6,92.6,170.2,92.6,243,69.5
			c48.6,0,24.3-46.3,2.1-84.1c32.7,15,60.4,22,85.5,26.4c124.2,18.4,160.9-154.7,192.2-361.4c72,140.6,155.9,306.9,234.7,276.9
			c19.7-7.5,40.2-17.7,61.5-26.7c31.6-16.4,31.6-16.4,55.8-39.6c24.3,92.6,48.6,162,145.8,185.2c24.3,0,24.3-46.3,24.3-69.5
			c24.3,23.2,48.6,69.5,97.2,69.5c48.6-23.2,24.3-69.5,24.3-92.6c48.6,23.2,72.9,69.4,121.5,92.6c24.3-46.3,56.1-290.6,31.8-360
			c48.6,92.6,162.7,429.4,284.1,360c0,23.2,0,69.4,0,92.6c24.3,23.2,48.6-23.2,48.6-46.3c-24.3,69.4-24.3,115.7,1.8,178.3
			c12.4,6.3,28.2,5.4,48-2.8c19.9-8.2,43.7-23.6,72.2-46c-37.6,109.3-32.6,151.5,42.9,139.2c25.4,0.9,60.6,12.7,106.7,29.4
			c-150,118.7,408.7,65.3,457.3,65.3c-48.6,23.1-340,122.9-388.6,122.9c73,92.6,349.8,94.8,446.9,117.9
			c-48.6,23.2-252.5,21-310.2,21.8c-34.2,5.7-43.2,18.1-39,33.3c8.6,30.3,60.5,67,147.3,111.6c-109.6,18-82.2,75.1-30.6,145.7
			c-6.4,42.3,232.4,153.3,232.4,153.3S3567,1804.2,3567.6,1864.7z"/>
		<path class="st1" d="M2096.9,3120.1c-32.8-0.5-65.3-3.3-91-0.2c-25.7,3.1-44.6,12-55.5,28.6c-90.1-111-292.6-74.3-297.2,94.7
			c-38.5-64.5,4.6-169-64.8-220c-9.7-8.5-28.5-13.2-50.3-15.3c-17.2-1.5-35.9-1.6-56.4-0.4c-20.8-2-46.5-28.1-81.7-66.4
			c-79.9-45.5-158.7-111.1-260.5-71.6c81.7-40,162.2-37.8,242.8-35.6c-77.6-107.9-217.4-154.1-338.2-157.4
			c80.6,2.2,141,3.9,229.3,2.7c-0.5-11.3-10.7-26.9-26.5-42c-15.8-15.1-37.4-29.7-60.6-39c1.3-38.1-4-55.4,1.3-12.9
			c-30-90.4-49.9-120.4-45.4-10.4c-41.3-157.5-67.1-213.6-132.6-123.7c-13.2,18-27.9,41.8-44.5,71.7c26.2-122.7,49.8-249-27.8-356.9
			c-97.2-129.6-257.7-155.1-398.6-159c121.4-17.8,242.8-35.6,364.8,7.4c20-4.8,15.6-32,0.2-70.8c-15.2-38.7-41.2-88.9-74.6-151.4
			c60.6,73.9,91.2,99.7,102,87.5c11-12,2.4-61.4-11.9-132.6c17,10.5,27.7-0.9,23.8-7.8c20.9-38.3,27.7-72-31.1-37.7
			c27.7-44.3,49-81.4,56.1-110.5c7.2-29.2,0.3-50.5-28.3-63.4c-44.4-39.5-63.4-82.3-123.2-105.1c40.3,1.1,100.7,2.8,141.4-0.9
			c21.7-15.2,39.9-30.6,54.8-46.8c37.3-40.5,54.4-86,57-145.6c1.2-11.2,3-24.1,6.5-41.2c74.5-200.4,41.8-476.2-198-546.3
			c200.1,47.8,274.9,261.4,260.4,447.1c6.7,14.5,14.7,21.5,22.9,24.9c33.3,13.8,60,3.3,45.5-15.5c66.6-43.9,90.2-98.2,15.2-176.3
			c108.1,58.5,123.6,71.7-14.4,75.9c179.3-16.2,203.6-42.9,22.3-99.4c79.3,3.4,134.7,3.1,167.1-5.1c32.5-8.2,42.1-24.2,30-52
			c51.4-56.1,73.9-140.1,95.8-203c39.1,43.4-23.6,126.3,17.2,106.2c143.3-80.7,109.4-314.2-7.9-444.3
			c118.5,87.8,134,257.4,106.1,376.8c18.7,36.4,45,31.6,70.5,0.3c21.5-22.1,42.7-59.1,66.4-110c9.6-15.8,24.7-29.7,59.9-33.7
			c-39.1,27-38.9,62.3-40.2,81.4c-1.3,19.1-4.1,22-13.8,6c31.8,23.7,56.8,28.7,74.5,10.1c8.9-9.3,16.8-24.1,24.9-44.6
			c47.5-21.7,68.2-42.3,109.7-62c-43.5,47.7-71,72.9-69.1,74.3c1.9,1.3,28.8-22.7,78-77.6c-30.3,23.7-32.1,87.1-11.4,66.5
			c61-19.5,143.3-80.6,146.2-186.3c18.4,64-43.2,104.6-44.9,167.9c102.4-60.6,146.2-186.3,129.5-313.6
			c-2.9,105.7-6.4,232.5-69.1,315.3c102.4-60.6,125.5-165.7,148.5-270.8c-1.7,63.4-2.9,105.6-34.8,176.7
			c-20.4,50.1-17.4,73.2-9.9,89.6c30.2,65.5,94.1,55.6,197.7,15.7c-31.3,97.4,29,122,91.2,152.3c28.7,15.8,57.8,32.8,74.4,11.2
			c40.5,58.6,69.9,78,84.3-4.3c25,65.9,47.3,105.9,71.6,115c12.2,4.5,24.7,1.8,38.2-8.2c16.9-25.9,16.9-25.9,37.6-46.5
			c-24.2,147.4,50.6,360.9,233.5,302.4c-21.3,41.7-1.7,63.4,38,85.6c80,23.4,142.1-38.3,184.1-100.7c-21.3,41.7-62.7,82.9-84,124.6
			c40.2,1.1,60.4,1.7,101.2-18.4c-81.7,40.1-84.6,145.8-66.2,209.7c-1.2,42.3,39.7,22.2,73.1,3.9c-13.8,28.1-20.6,52-25,73.7
			c-19,107.6,22.7,159.7,201.6,191.9c-124,59.2-162.6,112.1-138.3,181.3c6,17.3,14.4,35.4,21.7,54.1c13.5,27.9,13.5,27.9,33.1,49.5
			c-81.1,18.9-142.1,38.4-164.6,122.4c-0.6,21.1,39.7,22.2,59.8,22.8c-20.7,20.6-61.6,40.6-62.7,82.8c19,42.8,59.8,22.8,80,23.4
			c-21.3,41.7-62.1,61.7-83.5,103.4c39.7,22.3,58.7,65.1,119.6,45.6c-81.7,40.1-184.7,121.8-127.2,229.1
			c-20.1-0.6-60.4-1.7-80.5-2.2c-20.7,20.6,19,42.8,39.1,43.4c-59.8-22.8-100.1-23.9-155.1-2.7c-5.8,10.6-5.3,24.4,1.3,41.8
			c6.7,17.5,19.5,38.5,38.3,63.9c-94.1-35.4-131-32-122,34c-1.4,22.1-12.5,52.4-28.1,92.1c-99.6-133.3-147.5,140.4-148.7,182.6
			c-19-42.8-17.8-85.1-16.6-127.4c-82.3,61.2-85.2,166.9-107.6,250.8c-19-42.8-17.8-85-17.1-135.3c-4.2-29.9-14.7-38-28-34.7
			c-26.6,6.7-59.7,51-100.6,125.4c-13-95.8-63.3-73.3-126-30.1c-36.6-6.6-87.4,7.5-138.5,16.7
			C2201.3,3116.6,2149.5,3120.9,2096.9,3120.1z"/>
		<path class="st2" d="M3237.7,1904.2c0,620.7-503.2,1124-1124,1124c-620.8,0-1124-503.2-1124-1124c0-620.8,503.2-1124,1124-1124
			C2734.4,780.2,3237.7,1283.4,3237.7,1904.2z"/>
		
			<image style="overflow:visible;opacity:0.4;" width="1974" height="1941" xlink:href="BD5FB612BDF0570.png"  transform="matrix(1 0 0 1 1264 1088)">
		</image>
		<g class="st3">
			<g>
				<path class="st2" d="M2442.7,1333.5c13.1,25.8-38.1,65.4-87.3,93.1c-50.3,29.3-98.7,46.8-104.1,65.5
					c-19,36.5,162.9,120.7,137.4,156.7c-35.1,36.9-244.1-27.9-274.3-14.6c-17.6,8.1-3.6,43,20.1,85.6
					c21.9,41.6,53.6,90.9,30.4,102.4c-21.9,11.3-94.5-27-155.8-68c-63.4-41.2-115.5-85.1-145-89.6c-30.3-5.3-51.1,29.2-75.1,70.4
					c-23.8,39.7-50.8,86.1-88,68.8c-38.4-17.6-63.6-87.6-76.2-147.5c-13.7-61.6-14.8-113.2-30.9-131.3
					c-27.3-39.9-167.8,43.3-187.7,17.4c-14.4-30,125.7-166.5,134-195.6c4.4-16.3-22.1-16.1-55.5-10.2c-32,4.6-71,14.9-58.8-9.1
					c12.1-24,72.2-68.4,125.7-100.2c54.8-33.5,102.8-54.2,121.3-71.4c39.9-32.8-15.9-94.8,26.3-130.8c43.4-35.5,136.1,9.6,161.7-4.8
					c13.3-8.4,16.4-38.5,9-76.4c-5.9-36.8-22.2-81.5-16.2-93.3c17.7-21.2,110,123.3,126.5,126.2c12.1,3,17.1-28.9,18.8-66.7
					c2.4-36.4,1.4-78.8,17.9-65.2c17,13.8,40,74.3,53.9,127.1c15,54.2,20.9,100.7,31.2,117.3c20,36.5,78-39,109-9.5
					c36,34-15.2,162.6-0.5,197.1c9.9,18.8,49.3,26,102.7,28.5C2364.4,1308.9,2429.6,1307.7,2442.7,1333.5z"/>
				<g>
					<path class="st2" d="M2003.8,888.1c14.6,11.8,34.3,63.8,46.2,109.2c12.9,46.5,17.9,86.5,26.8,100.7c7.7,14.1,22,8.8,37.8,0.9
						c-5.1-0.9-9.5-3.7-12.7-9.7c-10.4-16.5-16.2-63.1-31.2-117.3c-13.8-52.8-36.9-113.3-53.9-127.1c-13-10.6-15.1,13.2-16.7,41.5
						C2001.2,886.6,2002.4,886.9,2003.8,888.1z"/>
					<path class="st2" d="M2170.5,1089.8c30.9,29.3-13,139.6-0.4,169.3c5.3,10,20.4,16.2,42.1,20c-0.5-0.8-1.3-1.4-1.7-2.2
						c-14.7-34.5,36.5-163.1,0.5-197.1c-14-13.4-33.6-5.2-52.7,4.4C2162.6,1084.6,2166.8,1086.3,2170.5,1089.8z"/>
					<path class="st2" d="M2130.9,1727.3c-18.8,9.7-81.1-23.2-133.8-58.4c-54.4-35.4-99.2-73.1-124.5-77
						c-26-4.6-43.9,25.1-64.5,60.5c-20.4,34.1-43.6,73.9-75.6,59.1c-33-15.1-54.6-75.2-65.4-126.7c-11.7-52.8-12.7-97.2-26.5-112.7
						c-23.5-34.2-144.1,37.2-161.3,15c-12.3-25.7,107.9-142.9,115.1-168c3.8-14-19-13.8-47.7-8.8c-27.5,4-61,12.8-50.5-7.8
						c10.4-20.6,62-58.7,107.9-86c47-28.7,88.3-46.6,104.1-61.3c34.3-28.2-13.6-81.4,22.6-112.3c37.2-30.5,116.9,8.2,138.9-4.1
						c11.4-7.2,14-33,7.7-65.6c-5.1-31.6-19-70-13.9-80.1c15.2-18.2,94.4,105.9,108.6,108.4c6.8,1.7,11-9.5,13.5-26.5
						c-1.7,1.5-3.6,2.4-5.7,1.8c-16.6-2.9-108.8-147.4-126.5-126.2c-6,11.8,10.3,56.5,16.2,93.3c7.3,37.9,4.3,68-9,76.4
						c-25.6,14.3-118.4-30.7-161.7,4.8c-42.2,36,13.7,98-26.3,130.8c-18.4,17.2-66.5,38-121.3,71.4
						c-53.5,31.7-113.6,76.1-125.7,100.2c-12.1,24,26.8,13.8,58.8,9.1c33.4-5.9,59.9-6,55.5,10.2c-8.3,29.1-148.4,165.6-134,195.6
						c19.9,25.8,160.4-57.3,187.7-17.4c16.1,18.1,17.2,69.7,30.9,131.3c12.5,60,37.8,129.9,76.2,147.5c37.2,17.3,64.2-29.1,88-68.8
						c24-41.2,44.8-75.7,75.1-70.4c29.5,4.5,81.6,48.4,145,89.6c61.3,41,133.8,79.3,155.8,68c22.7-11.2-7.1-58.6-28.9-99.6
						C2134.7,1724.5,2133.2,1726.2,2130.9,1727.3z"/>
					<path class="st2" d="M2325,1572.7c-0.1,2-0.7,4-2,5.8c-30.1,31.7-209.6-23.9-235.5-12.6c-15.1,6.9-3.1,36.9,17.2,73.5
						c0.8,1.4,1.6,2.9,2.3,4.3c1-4.4,3.2-7.8,7.2-9.6c30.2-13.2,239.3,51.6,274.3,14.6C2401.1,1631.1,2364,1602,2325,1572.7z"/>
					<path class="st2" d="M2442.7,1333.5c-8.4-16.6-38.7-22-72.8-24.8c9.5,22.2-33.7,55.5-75.4,78.9c-43.2,25.2-84.8,40.2-89.4,56.2
						c-6.9,13.2,16.8,33.6,44.8,55.1c-0.1-2.5,0.1-4.8,1.2-7c5.4-18.7,53.9-36.2,104.1-65.5
						C2404.6,1398.9,2455.8,1359.3,2442.7,1333.5z"/>
				</g>
			</g>
			<g>
				<path class="st2" d="M1652.6,2050.2c-6.1,49.1-19.9,96.8-26.7,140.9c-7.2,45.7-12.9,90-20.9,127.4
					c-8.2,37.7-20.6,67.1-31.8,94.1c-11.6,27-6.2,76.3-21.6,90.5c-15.2,14-71-37.3-96.2-36.9c-25.4,0.7-38.8,18.1-68.9,5.2
					c-31.5-13.2-65.6-53.6-98.7-80.2c-33.5-26.9-66.3-29.8-98.6-68c-31.7-37.8-58.4-82.7-80.9-129.7c-21.6-45.3-54.2-93-62.1-144.1
					c-7.8-51.1,36.2-86.8,46.4-132.4c10.4-47.4,3.3-104.7,30-142.9c26.1-38.8,51.6-104.5,91.1-130.7c38.8-26.1,80.6,27.1,120.4,13.5
					c36.8-13.6,105.1-99.1,145.2-97.4c38.3,1.1,54.1,41.9,81.1,56.4c27.4,14.8,23.6,61.2,40.3,88.5c16.4,27.6,13.8,63.4,20.6,101.6
					c7,37.9,38.2,57.8,35.8,103.4C1655.1,1953.6,1658.6,2001,1652.6,2050.2z"/>
				<path class="st2" d="M1135.7,2226.5c-21.5-45.3-54.2-93-62.1-144.1c-7.7-51.2,36.2-86.8,46.4-132.4
					c10.5-47.4,3.3-104.7,30-142.9c26.1-38.8,51.7-104.5,91.1-130.7c38.8-26.1,80.6,27,120.4,13.5c36.8-13.6,105-99.1,145.1-97.4
					c35,1,51.3,34.9,74.3,51.8c-4.2-12.3-10.1-22.8-20.7-28.5c-26.9-14.4-42.7-55.3-81.1-56.4c-40.1-1.7-108.4,83.8-145.2,97.4
					c-39.8,13.6-81.5-39.6-120.4-13.5c-39.4,26.3-65,91.9-91.1,130.7c-26.7,38.2-19.5,95.6-30,142.9
					c-10.2,45.6-54.2,81.3-46.4,132.4c7.9,51.1,40.6,98.7,62.1,144.1c22.5,47,49.2,91.9,80.9,129.7c3.6,4.2,7.2,7.8,10.7,11.3
					C1175.4,2301.6,1154.1,2264.9,1135.7,2226.5z"/>
			</g>
			<g>
				<path class="st2" d="M2738.4,1684.8c62.9,100.7-21.9,238.4,91.3,329.7c19.4,20.7,36.7,67.1,53.4,74.8
					c16.6,7.6,33.4-57.1,51.1-65c301.9-152.2,135.6-780.6-190.9-796.7c-55.4,1.8-144.9-28.9-206.2,0.1
					c-113.1,78,76.6,280.7,167.3,392.5C2718,1640.9,2728.1,1662.9,2738.4,1684.8z"/>
				<path class="st2" d="M2870.1,2040.3c-113.2-91.4-28.4-229.1-91.3-329.7c-10.3-21.9-20.4-43.9-33.9-64.6
					c-90.6-111.7-280.4-314.5-167.3-392.5c61.3-29,150.8,1.7,206.2-0.1c39.8,2,77.1,13.1,111.5,31.3c-44.9-33.2-96-54.3-151.9-57
					c-55.4,1.8-144.9-28.9-206.2,0.1c-113.1,78,76.6,280.7,167.3,392.5c13.5,20.8,23.6,42.7,33.9,64.6
					c62.9,100.7-21.9,238.4,91.3,329.7c19.4,20.7,36.7,67.1,53.4,74.8c4.7,2.2,9.3-1.5,14.1-7.9
					C2888.5,2066.5,2879.6,2050.4,2870.1,2040.3z"/>
			</g>
			<g>
				<path class="st2" d="M2615.4,2867.4c-23,16.2-86.6-4.4-140.8-25.4c-56.1-21.4-102.8-43.3-125.1-41
					c-45.2,0.2-33.1,121.8-81.6,114.1c-44.6-13.2-109.6-137.5-146.9-148.3c-19.8-6.7-44.4,9.1-67.9,29.9c-24,19.9-45,43.9-70.4,34.6
					c-24.5-8.6-44.2-49.2-50.9-85.9c-8.2-37.6-2.8-71.8-19.6-85.5c-16.7-14.2-66.2-12.9-124.8-11.6c-56.7,1.1-123,2.1-132.3-15.2
					c-9.9-17.6,46-44.2,100.1-67c55.1-23.3,106.7-41.3,115-53.1c20.7-24.5-136-38.3-115.3-51.6c23.4-14.8,221.8-24.6,254.3-32.8
					c17.2-5,1.3-13.9-21.5-21.9c-21.2-8.1-47.7-15-21.2-21.3c26.1-6.3,92.6-7.1,151.4-2.4c60.5,4.2,111.3,13.5,138.3,13.1
					c56.2,1.4,59-49.1,115.1-49.5c58.6,0,106.7,62.5,138.8,68.3c17.7,2.3,43.6-10.4,62.9-32.5c20.3-20.9,31.1-51.2,43.3-54.5
					c34.8-2.6,25.6,115.7,32,125.4c8.3,7.7,38.5-4.8,67.9-22.6c29.3-16.7,56.6-39.2,63.6-23.3c7.8,16.3-14.5,59.7-47.5,92.4
					c-32.4,34.2-71,58.1-78.1,71.1c-18.8,26.9,98.7,27.3,93.3,58.9c-7,37-174.8,57.9-200.5,78.3c-12.9,12.5,5.7,37.5,33.6,70.4
					C2606.9,2810.5,2638.7,2851.2,2615.4,2867.4z"/>
				<g>
					<path class="st2" d="M2631.8,2412.4c2.5,2.3,7.2,2.6,13,1.7c-1.6-32.2-4.8-73.3-20.1-83.3
						C2629.5,2364.7,2628.1,2406.7,2631.8,2412.4z"/>
					<path class="st2" d="M1828.9,2487.3c12.7-5.9,21.7-11.1,24.7-15.5c7.6-9-8.9-16.6-31.6-23.2c-33,3.9-59.5,8.2-67.1,13
						C1742.8,2469.3,1790.7,2477.2,1828.9,2487.3z"/>
					<path class="st2" d="M2715.8,2458.8c-32.4,34.2-71,58-78.1,71.1c-8.3,11.8,9.9,18.6,32.4,25.1c15.9-13.5,40.4-31.8,62.2-54.8
						c33-32.7,55.3-76.1,47.5-92.4c-3.8-8.6-13.6-5.8-26.3,1C2744.8,2425.1,2731.6,2443.2,2715.8,2458.8z"/>
					<path class="st2" d="M2598.9,2826.1c-23,16.2-86.6-4.5-140.8-25.4c-56.1-21.3-102.8-43.3-125.1-41
						c-45.2,0.2-33.1,121.8-81.6,114.1c-44.6-13.1-109.6-137.5-147-148.3c-19.8-6.7-44.4,9.1-67.8,29.9c-24,19.9-45,43.9-70.4,34.6
						c-11.9-4.2-22.7-16-31.4-31.2c8.5,32.7,26.3,65,47.9,72.5c25.4,9.2,46.5-14.8,70.4-34.6c23.4-20.8,48-36.6,67.9-29.9
						c37.4,10.8,102.3,135.1,146.9,148.3c48.5,7.7,36.4-114,81.6-114.1c22.3-2.3,69.1,19.6,125.1,41c54.2,21,117.8,41.6,140.8,25.4
						c15.5-10.8,6.7-32.3-8.6-54.9C2606.2,2818,2603.8,2822.6,2598.9,2826.1z"/>
					<path class="st2" d="M2716.6,2605.1c-42.2,27.2-164.4,44.8-186.1,61.9c-9.4,9.2-2,25.1,13.7,45.8c0.7-1.6,1.5-3.1,2.9-4.4
						c25.7-20.4,193.6-41.3,200.5-78.3C2749.5,2618.5,2734.9,2611.1,2716.6,2605.1z"/>
					<path class="st2" d="M1895.6,2618.6c-16.7-14.2-66.2-12.9-124.8-11.5c-33,0.6-69.2,1.2-95.5-1.8
						c-15.9,10.4-24.7,20.1-20.3,27.9c9.3,17.3,75.6,16.3,132.3,15.2c55.9-1.3,103.1-2.4,121.9,9.9
						C1907.5,2640.6,1905.1,2626.3,1895.6,2618.6z"/>
					<path class="st2" d="M1955.9,2392.6c17-1.8,30.2-3.5,36.7-5.1c5.6-1.6,7.4-3.7,6.9-5.9c-13.7,0.9-25.3,2.2-33.1,4.1
						C1957.1,2387.9,1954.5,2390.2,1955.9,2392.6z"/>
				</g>
			</g>
			<g>
				<g>
					<path class="st2" d="M2348.2,1999.6c-3.3-7-22.8-18.4-40.8-27.2c4.8-42.1,4.8-77.9-12.9-100.4c-24-31.9-79.9-34.3-132,21.6
						c-9.2,10.2-16.9,21.1-23.7,32.4c-23.9-86.9-99.8-97.1-189-76.3c-119.6,23.6-142.1,223.8-64.1,381
						c99.7,174.5,195.3,159,137.5,25.1c41.9,46.2,79.7,53.1,107.6,35.7c34.8,25.3,81.3,48.9,89.9,46.6c20.8-5,33.2-17.3,40.4-42.3
						c57.6-8.7,86.3-45,104.6-169.2C2376.3,2070.5,2365.3,2034.2,2348.2,1999.6z"/>
				</g>
				<g>
					<path class="st2" d="M2325.6,2017.8c15.8,7.7,32.8,17.5,38.9,24.5c-3.9-15.3-9.6-29.1-16.3-42.7c-2-4.3-10.1-10.1-20.1-16.1
						C2327.9,1994.4,2327,2005.8,2325.6,2017.8z"/>
					<path class="st2" d="M1968.1,1895.2c89.3-20.9,165.1-10.7,189,76.3c6.8-11.3,14.5-22.3,23.7-32.4
						c49.7-53.4,102.8-53.6,128.4-25.8c-1.7-16.3-6.1-30.3-14.6-41.2c-24-31.9-79.9-34.3-132,21.6c-9.2,10.2-16.9,21.1-23.7,32.4
						c-23.9-86.9-99.8-97.1-189-76.3c-117.1,23.1-140.9,215.4-68.6,371C1832.6,2075.4,1862.1,1916.1,1968.1,1895.2z"/>
				</g>
			</g>
		</g>
		<path class="st4" d="M1348.8,1953c-138.1-176.4-134.1-678.8,141.8-872.9c280-197,347.7-154.4,564.8-184.9
			c217.2-30.5,533.6,38.5,341.5,168.1c-192.1,129.5-403.3,44.7-618,213.3c-187.1,146.9,79.6,377.6-162.6,438.6
			C1374.2,1776.2,1405.9,2025.9,1348.8,1953z"/>
		<path class="st5" d="M2847.2,1052.9c16.4,81.9,25.1,166.5,25.1,253.3c0,710-575.6,1285.6-1285.6,1285.6
			c-143.5,0-281.2-23.9-410.1-67.2c201.3,303.4,545.8,503.6,937.2,503.6c620.7,0,1124-503.2,1124-1124
			C3237.7,1563.8,3086.2,1259,2847.2,1052.9z"/>
		<path class="st2" d="M1472.8,1216.7c95.1-116.2,175-190.6,318.8-212.5c143.8-21.9,166.7,73.2,71.9,103.1
			c-237.5,75-269.1,211.7-323.4,239.4C1490.3,1372,1388.4,1319.9,1472.8,1216.7z"/>
	</g>
</g>
</svg>
