<?xml version="1.0" encoding="utf-8"?>
<!-- Generator: Adobe Illustrator 27.5.0, SVG Export Plug-In . SVG Version: 6.00 Build 0)  -->
<svg version="1.1" xmlns="http://www.w3.org/2000/svg" xmlns:xlink="http://www.w3.org/1999/xlink" x="0px" y="0px"
	 viewBox="0 0 4000 4000" style="enable-background:new 0 0 4000 4000;" xml:space="preserve">
<style type="text/css">
	.st0{fill:#A19C9A;}
	.st1{fill:#837F7F;}
	.st2{fill:#CEC7C2;}
	.st3{fill:#BEB6B4;}
	.st4{fill:#878381;}
	.st5{opacity:0.69;fill:#CEC7C2;}
	.st6{fill:#B5AFB4;}
	.st7{fill:#565358;}
	.st8{fill:#7A726F;}
	.st9{fill:#635C5C;}
	.st10{fill:#9D928B;}
	.st11{fill:#66605D;}
	.st12{fill:#887F87;}
	.st13{fill:#403B43;}
	.st14{fill:#676160;}
	.st15{fill:#575052;}
</style>
<g id="_x2014_ÎÓÈ_x5F_1">
</g>
<g id="_x2014_ÎÓÈ_x5F_2">
	<g>
		<g>
			<path class="st0" d="M3441.7,994.1c-25.4,33.8-68.3,326.4-68.3,326.4s-208.1,55.1-439.7-118.3
				c-258.4-193.5-239.8-410.9-239.8-410.9s272.5-103.1,296.6-135c40.9-54.7,175-23.3,299.7,69.9
				C3414.7,819.6,3482.5,939.6,3441.7,994.1z"/>
			<path class="st1" d="M3101.9,1294.5c155.3,56.8,271.5,26.1,271.5,26.1s43-292.7,68.3-326.4c40.8-54.6-27-174.6-151.5-267.9
				c-2.4-1.7-4.8-3.3-7.2-5c-25.1,73.7-113.4,253.2-149.3,365.4C3102.4,1184.3,3099,1229.5,3101.9,1294.5z"/>
		</g>
		<g>
			<path class="st0" d="M889,977.8c27.4,16.3,250.7,25.3,250.7,25.3s58,151.9-53.8,339.7c-124.8,209.6-289.6,213-289.6,213
				s-99.2-196.5-125.1-212c-44.3-26.4-31.4-129.6,28.6-230.7C760,1012,844.7,951.5,889,977.8z"/>
			<path class="st1" d="M1141.8,1209.2c30.2-121.2-2.1-206-2.1-206s-223.3-9-250.7-25.3c-44.3-26.3-129,34.2-189.2,135.2
				c-1.1,1.9-2.1,3.9-3.2,5.8c57.4,13,199.3,65.1,286.4,83.1C1058.9,1217.5,1093.2,1216.5,1141.8,1209.2z"/>
		</g>
		<path class="st2" d="M3592.6,2101.2c0,829.2-672.2,1501.3-1501.4,1501.3c-829.2,0-1501.3-672.1-1501.3-1501.3
			c0-829.1,672.2-1501.3,1501.3-1501.3C2920.4,599.9,3592.6,1272.1,3592.6,2101.2z"/>
		<g>
			<path class="st3" d="M903.6,1740.9c-51.3-69.2-53.4-113.4,86.8-333.6c140.1-220.2,507.1-473.8,620.5-266.9
				c113.4,206.8,186.8,533.8,113.4,647.2c-73.4,113.4-400.4,293.6-540.5,186.9C1043.7,1867.7,957.9,1814.2,903.6,1740.9z"/>
			<path class="st4" d="M1023.7,1480.7c140.1-220.2,507.1-473.7,620.5-266.9c5.7,10.4,11.3,21.4,16.8,32.4
				c-15.5-37.3-32.2-73.1-50.1-105.8c-113.4-206.8-480.4,46.7-620.5,266.9c-140.1,220.2-138.1,264.4-86.8,333.6
				c0.6,0.8,1.3,1.6,1.9,2.4C901.3,1693.5,931.9,1625,1023.7,1480.7z"/>
		</g>
		<g>
			<path class="st3" d="M3244.6,2221.2c73.2,45.5,91.4,85.8,42.2,342.1c-49.2,256.4-297,627.3-478.6,476.7
				c-181.7-150.5-370.3-427.4-343.9-559.9c26.4-132.5,264-420.4,433.6-372.8C3067.6,2155,3167.1,2173.1,3244.6,2221.2z"/>
			<path class="st4" d="M3228.8,2507.4c-49.2,256.3-297,627.3-478.6,476.7c-9.2-7.6-18.4-15.8-27.5-23.9
				c28.1,28.9,56.9,56.1,85.6,79.8c181.6,150.5,429.4-220.3,478.6-476.7c49.2-256.3,31-296.6-42.2-342.1c-0.9-0.5-1.8-0.9-2.6-1.4
				C3264.1,2264.4,3261,2339.5,3228.8,2507.4z"/>
		</g>
		<g>
			<path class="st3" d="M2435.7,1014.4c54.8-52.6,127-123,442-58.6c351.5,87.7,454.9,491,255.9,436.3
				c-190.1-30.8-374.4,43.4-450.6,39.8c-67.9-33.5-339.8-38.8-342.5-147.8C2356.1,1157.9,2376.1,1083.7,2435.7,1014.4z"/>
			<path class="st4" d="M2792,980.2c348.2,56.2,474.4,435.2,280.5,405.4c-8.7,0.2-17.6,0.3-26.4,0.7c29.6,0.6,59.2,2.9,87.5,5.8
				c199,54.7,95.5-348.6-255.9-436.3c-315-64.4-387.2,6-442,58.6c-0.7,0.8-1.2,1.5-1.9,2.2C2488.3,987.6,2591,949.4,2792,980.2z"/>
		</g>
		<g>
			<path class="st3" d="M1401.8,3114.5c-127.7-29.7-195.1-73.9-234.8-273.2c-23.7-206.6,182.2-382.6,307.3-321.3
				c142.7,82.3,405.1,73,497,97.3c85.1,32,202.8,285.9-38.5,414.1C1699.1,3136.4,1540.4,3140,1401.8,3114.5z"/>
			<path class="st4" d="M1257.2,2899.6c-47.2-202.7,135.2-404.2,269-357c8.1,2.4,16.5,4.8,25,7.1c-27.2-9.2-52.9-19.5-76.8-29.6
				c-125.1-61.3-330.9,114.7-307.3,321.3c39.7,199.3,107.1,243.5,234.8,273.2c1.4,0.3,3.1,0.6,4.6,0.9
				C1345.7,3085.1,1295.5,3027,1257.2,2899.6z"/>
		</g>
		<path class="st2" d="M3407.5,1378.9C3195.2,2330.6,2346.3,3042,1330.6,3042c-152.9,0-301.9-16.4-445.6-47.1
			c273.6,368.6,712,607.6,1206.3,607.6c829.2,0,1501.4-672.1,1501.4-1501.3C3592.6,1839.3,3525.4,1593.2,3407.5,1378.9z"/>
		<path class="st5" d="M3581.9,1925.4C3568,2810,2847.1,3522.9,1959.2,3522.9c-222.4,0-434.1-45.3-627-126.3
			c222.7,130.9,482.1,205.9,759.1,205.9c829.2,0,1501.4-672.1,1501.4-1501.3C3592.6,2041.7,3588.7,1983.1,3581.9,1925.4z"/>
		<g>
			<g>
				<path class="st0" d="M3392.3,2255c-67.5,11-447.2,304.8-447.2,304.8s-305.3-169.9-380.9-633.2c-84.4-517.2,182-750.4,182-750.4
					s434.6,186.4,498.8,175.9c109.3-17.8,230.8,169.8,271.5,419.2C3557.2,2020.6,3501.5,2237.1,3392.3,2255z"/>
				<path class="st1" d="M2657.1,2223.8c117.7,241.1,288,336.1,288,336.1s379.7-293.9,447.2-304.8
					c109.3-17.9,164.9-234.4,124.2-483.7c-0.7-4.8-1.8-9.3-2.6-14c-112.4,57.9-417.7,168.3-585.9,259.1
					C2781.7,2095.5,2726.8,2144.5,2657.1,2223.8z"/>
				<path class="st2" d="M3392.3,2255c-109.3,17.8-230.9-169.9-271.5-419.2c-40.7-249.4,14.9-465.9,124.3-483.7
					c109.3-17.8,230.8,169.8,271.5,419.2C3557.2,2020.6,3501.5,2237.1,3392.3,2255z"/>
				<path class="st4" d="M3391.5,2172.6c-83.6,13.7-178.6-141.4-212.1-346.3c-33.4-204.9,7.3-382.2,91-395.8
					c83.6-13.6,178.5,141.4,212,346.4C3515.9,1981.7,3475.2,2159,3391.5,2172.6z"/>
				<path class="st6" d="M2841.7,1478.6c-95.4-18.5-133.2-71.8-113.3-137.1c19.9-65.3,115.6-106.2,190.4-44.1
					c72.2,59.9,194,101.7,174.1,166.9C3073,1529.7,2922.6,1494.3,2841.7,1478.6z"/>
				<path class="st7" d="M3429,1587.9c-44-102.6-103.6-166.4-158.4-157.5c-65.9,10.7-105,123.1-102.4,270.3
					C3267.7,1636.8,3359.5,1604.4,3429,1587.9z"/>
			</g>
			<g>
				<g>
					<path class="st0" d="M2362.9,403.8c0,52.6,192.3,532.6,192.3,532.6S2388.5,1147,2027.5,1147c-402.9,0-547-231-547-231
						s178.9-462.3,178.9-512.3c0-85.1,157.5-154.2,351.7-154.2C2205.4,249.6,2362.9,318.6,2362.9,403.8z"/>
					<path class="st1" d="M2264.6,1113.4c197.5-59.5,290.7-177,290.7-177s-192.3-480-192.3-532.6c0-85.1-157.5-154.2-351.7-154.2
						c-3.7,0-7.2,0.2-10.9,0.3c30,92.5,92.3,493.4,140.4,632.3C2182.6,1002.9,2213,1050.7,2264.6,1113.4z"/>
					<path class="st2" d="M2362.9,403.8c0,85.2-157.5,154.2-351.7,154.2c-194.3,0-351.7-69-351.7-154.2
						c0-85.1,157.5-154.2,351.7-154.2C2205.4,249.6,2362.9,318.6,2362.9,403.8z"/>
					<path class="st4" d="M2300.3,394.1c0,65.2-129.5,118-289.1,118c-159.7,0-289.1-52.9-289.1-118c0-65.2,129.5-118.1,289.1-118.1
						C2170.9,276.1,2300.3,328.9,2300.3,394.1z"/>
					<path class="st6" d="M1721.8,881.1c-25.8,70.1-70.9,92.2-118,69c-47.1-23.2-66.3-100.9-9.9-150c54.4-47.3,84.9-290.2,132-267
						C1773,556.3,1743.7,821.6,1721.8,881.1z"/>
					<path class="st7" d="M1861.2,293.4c-83.3,20.7-139.1,58.1-139.1,100.8c0,51.3,80.4,94.8,192.5,111.1
						C1878.3,421.8,1865.1,348.1,1861.2,293.4z"/>
				</g>
				<g>
					<path class="st0" d="M2156.3,3086.8c-30.4-19.7-227-139.4-227-139.4s-6.3-270.6,221-370.8c253.8-111.8,452.5,49.9,461.5,85.3
						c15.8,62-37.4,218.7-40,253c-4.4,58.4-82.2,92.6-204.5,146.6C2244.9,3115.5,2201.1,3116,2156.3,3086.8z"/>
					<path class="st1" d="M2020.4,2678.1c-107.9,92.2-106.5,238.9-91.1,269.4c30.6,60.8,201.4,122.9,233.1,140.4
						c47.3,26.2,101.4,17.1,223.7-36.7c2.3-1,4.5-2.1,6.8-3.2c-44.6-49.9-118.6-107.2-187.5-181.3
						C2145.5,2802.1,2070.2,2703.2,2020.4,2678.1z"/>
					<path class="st2" d="M2121.8,3051.6c-34.8-79,36.2-186.8,158.5-240.6c122.3-54,249.7-33.6,284.5,45.4
						c34.8,79-36.2,186.7-158.5,240.6C2284,3151,2156.6,3130.6,2121.8,3051.6z"/>
					<path class="st4" d="M2165.2,3043.1c-26.7-60.4,33.3-145.4,133.8-189.7c100.6-44.3,203.7-31.2,230.3,29.3
						c26.7,60.4-33.3,145.4-133.8,189.8C2295,3116.8,2191.8,3103.7,2165.2,3043.1z"/>
					<path class="st6" d="M2506.5,2753.5c-3.2-51.3-20-96.9,16.2-95.4c36.1,1.5,85.8-20.2,63.9,26.4c-21.1,45-26.4,112.9-62.4,111.4
						C2487.9,2794.4,2509.2,2797.1,2506.5,2753.5z"/>
					<path class="st7" d="M2483,3014.8c44-42.4,63.9-92.5,46.4-132.1c-21-47.6-89.4-65.7-166.7-49.7
						C2419.6,2900.4,2458.1,2965.1,2483,3014.8z"/>
				</g>
				<g>
					<path class="st0" d="M552.6,2633.4c44-2.3,323.3,131.1,323.3,131.1s169.1-148.7,153.5-450.9c-17.5-337.3-217-447.9-217-447.9
						S564,2042.4,522.1,2044.6c-71.3,3.7-122.2,138.5-113.9,301C416.7,2508.3,481.3,2637.1,552.6,2633.4z"/>
					<path class="st1" d="M1011.5,2513.4c-41.3,168-135.6,251-135.6,251s-279.3-133.3-323.3-131.1
						c-71.2,3.7-135.9-125.1-144.3-287.8c-0.1-3-0.1-6-0.2-9.1c78.7,21.2,286.1,49,404.4,83.3
						C915.4,2449.6,956.7,2473,1011.5,2513.4z"/>
					<path class="st2" d="M552.6,2633.4c71.3-3.7,122.3-138.5,113.9-301.1c-8.4-162.7-73.1-291.5-144.3-287.7
						c-71.3,3.7-122.2,138.5-113.9,301C416.7,2508.3,481.3,2637.1,552.6,2633.4z"/>
					<path class="st4" d="M541.8,2581.5c54.6-2.8,93.2-113.5,86.3-247.1c-6.9-133.7-56.8-239.8-111.3-237
						c-54.6,2.9-93.2,113.5-86.3,247.1C437.4,2478.2,487.3,2584.3,541.8,2581.5z"/>
					<path class="st6" d="M793.5,2069.2c57.6-24.6,74.1-63.4,52.6-101.8c-21.4-38.5-87.3-51.1-125.9-1.8
						c-37.3,47.6-108.4,90.5-86.9,129C654.8,2133,744.7,2090.1,793.5,2069.2z"/>
					<path class="st7" d="M438.5,2218.2c13.7-70.6,42.5-119,78.3-120.8c42.9-2.2,82.9,63.2,101.4,156.3
						C546.7,2227,484.4,2219.1,438.5,2218.2z"/>
				</g>
				<g>
					<path class="st8" d="M1959.4,3687c8.3-35.8,179-229.1,179-229.1s-80.5-169.6-326.2-226.2c-274.3-63.2-408.6,71.5-408.6,71.5
						s84.7,239.4,76.9,273.4c-13.4,58,83,129.7,215.2,160.2C1828,3767.2,1946,3745,1959.4,3687z"/>
					<path class="st9" d="M1968.3,3291.8c125.2,71.5,170.1,166.1,170.1,166.1s-170.7,193.3-179,229.1
						c-13.4,57.9-131.4,80.2-263.7,49.8c-2.4-0.5-4.9-1.3-7.3-1.9c34.9-58.2,104.7-218.1,159.3-305.1
						C1895.2,3354.1,1923.4,3326.4,1968.3,3291.8z"/>
					<path class="st10" d="M1959.4,3687c13.4-58-83-129.7-215.2-160.2c-132.2-30.5-250.3-8.2-263.6,49.7
						c-13.4,58,83,129.7,215.2,160.2C1828,3767.2,1946,3745,1959.4,3687z"/>
					<path class="st11" d="M1915.3,3683.8c10.2-44.4-69.6-100.7-178.3-125.8c-108.7-25.1-205.1-9.4-215.3,34.9
						c-10.2,44.4,69.5,100.7,178.3,125.8C1808.6,3743.8,1905.1,3728.1,1915.3,3683.8z"/>
					<path class="st12" d="M1562.4,3364.8c-6.6-51.8-33.8-73.9-69.6-65.4c-35.7,8.4-60.9,58.2-30.3,100.5
						c29.6,40.8,47.8,107.6,83.4,99.2C1581.7,3490.6,1568,3408.7,1562.4,3364.8z"/>
					<path class="st13" d="M1600.6,3683.4c-53.5-27.1-85.7-61.3-78.9-90.4c8-34.9,69.6-52,148.4-45.4
						C1632.4,3598.7,1611.8,3646.8,1600.6,3683.4z"/>
				</g>
				<g>
					<path class="st14" d="M3509.7,2946.1c-29.4-35.8-91.5-354.4-91.5-354.4s-231-49.7-475.9,152.2
						c-273.4,225.3-241.9,462.6-241.9,462.6s304,99.1,332,132.9c47.7,57.9,193.1,16.7,324.9-92
						C3489,3138.8,3557.3,3003.9,3509.7,2946.1z"/>
					<path class="st15" d="M3122,2634.3c167.3-70.2,296.3-42.5,296.3-42.5s62,318.6,91.5,354.4c47.6,57.8-20.7,192.7-152.4,301.4
						c-2.5,2-5.1,3.8-7.5,5.9c-31.3-79.4-137.4-271.7-182.4-392.9C3128.1,2755,3122.1,2705.6,3122,2634.3z"/>
					<path class="st10" d="M3509.7,2946.1c-47.7-57.8-193.1-16.6-324.9,92c-131.8,108.7-200,243.6-152.5,301.3
						c47.7,57.9,193.1,16.7,324.9-92C3489,3138.8,3557.3,3003.9,3509.7,2946.1z"/>
					<path class="st11" d="M3472.6,2987.6c-36.5-44.3-153.9-7.7-262.2,81.6c-108.3,89.2-166.6,197.5-130.2,241.7
						c36.5,44.3,153.9,7.7,262.2-81.6C3450.8,3140.1,3509.1,3031.8,3472.6,2987.6z"/>
					<path class="st12" d="M2883.7,3095.3c-56.7-33.1-99.7-22.9-118.7,19.2c-19.1,42.1,11.4,105.5,77.2,107.3
						c63.4,1.7,144,34.8,163-7.2C3024.1,3172.5,2931.8,3123.4,2883.7,3095.3z"/>
					<path class="st13" d="M3231,3301.5c-68.2,32.6-126.9,38.5-150.8,9.4c-28.7-34.7,1.5-109.3,68.4-183
						C3170.8,3204.9,3203.1,3262.3,3231,3301.5z"/>
				</g>
				<g>
					<path class="st0" d="M2273.9,1523.2c28.8,44,220.2,318.2,220.2,318.2S2344,2205,1983,2205c-402.9,0-572.3-331.5-563.6-383.9
						c15.3-91.7,177.9-268.8,201.4-312.9c40-75.1,163.5-75.1,357.8-75.1C2172.9,1433.1,2231.4,1458.1,2273.9,1523.2z"/>
					<path class="st1" d="M2215.1,2146.3c197.5-59.5,281.5-255.2,279-304.8c-5.1-98.7-195.9-281.4-227.7-323.3
						c-47.6-62.5-124.7-82.2-319-82.2c-3.7,0-7.2,0.2-10.9,0.2c30,92.4,94.9,212.1,143,350.9
						C2121.5,1908,2163.6,2083.6,2215.1,2146.3z"/>
					<ellipse class="st2" cx="1947.4" cy="1590.2" rx="351.7" ry="227.1"/>
					<path class="st4" d="M2236.6,1576c0,96-129.5,173.9-289.1,173.9c-159.7,0-289.1-77.9-289.1-173.9c0-96,129.5-173.9,289.1-173.9
						C2107.1,1402.1,2236.6,1480,2236.6,1576z"/>
					<path class="st6" d="M1613.2,1761.1c-25.8,70.2-30.3,140.6-77.4,117.4c-47.1-23.2-125.8-23.4-69.5-72.5
						c54.4-47.4,101.2-134.7,148.3-111.5C1661.7,1717.7,1635,1701.7,1613.2,1761.1z"/>
					<path class="st7" d="M1797.4,1427.6c-83.3,30.5-139.1,85.5-139.1,148.4c0,75.6,80.4,139.7,192.5,163.7
						C1814.6,1616.8,1801.3,1508.2,1797.4,1427.6z"/>
				</g>
			</g>
		</g>
		<path class="st6" d="M1599.5,1050.8c100.6,100.9-75.3,293.5-292.5,510.1c-217.2,216.6-393.6,375-494.2,274.2
			c-100.7-100.9-87.3-423,129.9-639.6C1160,979,1498.9,949.9,1599.5,1050.8z"/>
	</g>
</g>
</svg>
