<?xml version="1.0" encoding="utf-8"?>
<!-- Generator: Adobe Illustrator 27.5.0, SVG Export Plug-In . SVG Version: 6.00 Build 0)  -->
<svg version="1.1" id="Layer_1" xmlns="http://www.w3.org/2000/svg" xmlns:xlink="http://www.w3.org/1999/xlink" x="0px" y="0px"
	 viewBox="0 0 2880 1800" style="enable-background:new 0 0 2880 1800;" xml:space="preserve">
<style type="text/css">
	.st0{clip-path:url(#SVGID_00000002364633222769251270000008503150888376345770_);}
	.st1{fill:#091725;}
	.st2{fill:#0E1F33;}
	.st3{fill:#142846;}
	.st4{fill:#FFFFFF;}
</style>
<g>
	<defs>
		<rect id="SVGID_1_" width="2880" height="1800"/>
	</defs>
	<clipPath id="SVGID_00000105388747589937895080000007924620186409762209_">
		<use xlink:href="#SVGID_1_"  style="overflow:visible;"/>
	</clipPath>
	<g style="clip-path:url(#SVGID_00000105388747589937895080000007924620186409762209_);">
		<rect class="st1" width="2880" height="1800"/>
		<path class="st2" d="M-20.6,1072.6c33.6-46,78.1-84.1,128.8-110.2c32.9-16.9,69.9-29,106.5-23.8c68.6,9.9,113.1,74.4,164,121.6
			c78.9,73.3,189.9,110.8,297.1,100.5c150.9-14.5,280.6-116.1,429.7-143.8c35.1-6.5,72.1-8.7,105.9,2.6c75,25,114,107.4,132.4,184.4
			c20.4,85.2,25.9,173.4,24.2,260.9c-1.6,79.2-1.2,174.4,65.8,216.7c33.9,21.4,76.3,22.2,116.3,23.5c249,8,496.6,57.8,729.3,146.7
			c-292.5,41.7-584.5,87-875.8,135.9c-294.6,49.4-593.5,102.7-890.3,68.7c-155.2-17.8-309-59.4-465.1-51.9
			c-51.5,2.5-107.3,9.2-150.6-18.7c-58.7-37.9-66-121.8-50.7-189.9s46.8-134.4,42.8-204.2"/>
		<path class="st2" d="M1151.4-72.4c-27.4,34.3-12.9,88.8,20.8,116.9c33.7,28.1,80.1,35.2,124,35.7c104.5,1.1,209.5-29,312.6-12
			c31.1,5.1,62.7,15.2,85.7,36.8c43.1,40.5,44,107.1,45.2,166.2c1.9,90,12,181.6,48.9,263.7c36.9,82.1,104.1,154.1,190.5,179.5
			c134.7,39.5,272.9-39,391.1-114.7S2625.9,444.9,2761,483c150.9,42.6,248.2,221.4,405,224.6c120.9,2.5,215.6-103.9,271-211.4
			c29.6-57.5,53.5-125.9,28.8-185.7c-19.9-48.1-66.3-78.6-106.2-112C3291,141.4,3235.9,68.4,3199.6-13
			c-31.3-70.3-50.6-149.4-105.5-203.4c-41.8-41.1-99.1-62.1-155.5-78.3c-201.4-58.1-415.7-71-622.6-37.6
			c-129.8,21-257.9,60.1-389.5,58.7c-86.6-0.9-172-19.4-258.5-23.1c-172.9-7.4-347.8,46.5-486.5,149.9"/>
		<path class="st2" d="M-17.1,775.2c64.4-45,144.1-92.1,216.7-62c43.6,18,71.9,59.8,108.3,89.9c103.5,85.5,256.4,66.7,385.3,29.3
			c128.9-37.4,263.5-89.3,393.3-55.1c156.7,41.3,255.3,193.9,392.8,279.6c107.4,67,238.2,91.2,364.5,81.6s248.4-51.7,361.3-109
			c-211.3,121.4-505.5,71.6-665-112.6c-52.4-60.5-90.4-132-139.2-195.4c-82.6-107.2-200.9-191.8-334.8-211.5
			c-76.5-11.3-154.4-1.3-231.7-0.3c-77.3,1-158.7-8.5-221.9-53C484.2,366.4,479,174.3,374.7,57.2c-52.3-58.7-129.1-95-207.7-98.1
			c-34.5-1.4-70.9,4.1-98.3,25.1C11.9,27.8,17.3,112.5,14.2,184c-3.8,86.6-28.6,172.3-71.6,247.5"/>
		<path class="st2" d="M2935.8,1266.3c-45.2-50.1-104.8-105-170.3-88.8c-52.3,12.9-82.6,66.1-125.2,99
			c-65.2,50.6-156.4,51-237.5,35.4c-81.1-15.6-160.4-44.8-242.9-45.8c-37-0.4-76.6,6.1-103.7,31.3c-27.8,25.8-37.1,67.3-31.6,104.9
			c8.5,58.1,50.8,109.9,106,130c40.9,14.8,85.7,12.8,129.2,13.3c67.2,0.9,138.4,10.1,190.7,52.3c61.5,49.6,82.9,132.8,127.1,198.2
			c35.7,52.8,88.6,95.2,150.2,111.5c61.6,16.3,131.6,4.3,180.1-37c13.1-11.2,25.5-27.9,20-44.3c-5.7-17-26.4-22.5-44-25.9
			c-49.9-9.5-102.2-23.4-137.4-60c-39.3-41-49.4-102.1-82-148.6c-26.1-37.1-66.7-63.6-111.1-72.6c-33.3-6.7-68.2-3.9-101-13
			c-32.7-9.1-64.9-36.2-62.9-70.1c1.5-26.8,25.1-48.9,51.2-55.2c26.1-6.3,53.8,0.4,78.3,11.5c46,20.9,83.5,56.3,121.2,90
			c37.7,33.6,77.9,66.9,126.3,81.6s106.9,6.6,139.3-32.2c33.6-40.2,32-102.3,68.3-140c25.5-26.4,70.5-44.7,67.6-81.3"/>
		<path class="st2" d="M2966.5,929.7c-12.9-57.1-51.7-107.8-103.5-135.1c-24.7-13.1-56.2-20.5-79.9-5.5
			c-17.1,10.9-26,31.4-28.4,51.6c-5.7,49.6,22.4,96.6,53.7,135.5c25.5,31.6,53.9,60.9,84.7,87.3c32.9,28.3,76.6,54.6,117.4,39.7
			c25.4-9.3,43.3-33.6,49.7-59.8s2.5-54.1-5.7-79.8"/>
		<path class="st2" d="M568.1-25.7c-13.9,1.9-23.9,15.5-25.9,29.4c-2,13.9,2.3,27.9,7.4,40.9c37.5,95.8,123.7,171.1,223.7,195.5
			c51.1,12.5,112.9,8.7,145.9-32.4c23.1-28.8,26-69.8,16.5-105.4c-9.5-35.7-29.7-67.4-49.7-98.4c-23.6-36.7-47.2-73.4-70.8-110.1
			c-25-38.8-50.3-78.1-84.5-109.2c-34.2-31-78.8-53.3-124.9-51.1c-46.1,2.2-92.1,33.7-101.8,78.8"/>
		<path class="st2" d="M2846.8,705c-45.4,4.5-86.1,30.2-120.2,60.4c-34.1,30.2-63.5,65.6-98,95.3c-58.2,50.1-130.7,83.3-206.7,94.5
			c-29.2,4.3-64.3,3-81.3-21.1c-19.7-27.9-2.2-66.5,18.7-93.5c62.3-80.5,152.3-135.4,246.1-174.8c57-23.9,117.6-43,179.4-40.6
			c46.9,1.9,97.1,17.8,131.9,50.4C2985.7,740.5,2880.3,701.7,2846.8,705z"/>
		<path class="st3" d="M-60,1181.7c25.5,18.1,61,10,89-3.9c28-13.9,54.5-33.3,85.5-36.8c40.5-4.6,79,19.1,108.7,47
			c29.8,27.8,55.2,61,89.5,82.9c61.3,39.2,141.5,35.9,211,14.5c69.6-21.4,133-59,200.6-85.9c64-25.5,131.7-41.4,200.4-47.1
			c42-3.5,85.1-3,125.1,10.4c39.9,13.4,76.6,41.3,92.5,80.3c24.1,58.9-2.8,126,2.9,189.4c5.9,66.4,47.4,124.8,96.8,169.5
			c49.4,44.7,107.3,79,159.4,120.4c49.7,39.5,94.2,85.5,132,136.6c24.9,33.6,46.7,81.3,21.4,114.5c-8.1,10.6-19.8,17.6-31.2,24.3
			c-108.1,63-225.3,116.5-350,126.3s-258.6-30.5-337.4-127.7c-71.7-88.6-94.6-217.1-188.8-281.4c-59.1-40.4-134.9-46.4-206.4-44.2
			c-71.5,2.2-144.1,11.1-214-4.2c-114.9-25.2-205.3-111.5-286.3-196.8c-20.2-21.3-41.1-44.3-47.3-73c-8.4-38.7,11.4-77.3,30.6-111.8
			"/>
		<path class="st3" d="M1721.5-48.4c59.4-9.2,117.4,33.6,143.8,87.7c26.4,54,27.7,116.6,25.2,176.6c-2.5,60.1-8.2,121.1,5.8,179.6
			s52.5,115.3,110.2,132.1c48.4,14.2,100.5-1.9,146.2-23.4c45.7-21.5,89.6-48.7,139.1-58.6c65-13,131.7,5.4,197.9,8.3
			c75.8,3.4,152.5-13.9,219.4-49.5c77.4-41.2,153.4-108.7,239.6-92.7c46.6,8.7,85.2,41.1,130.1,56.3c43.7,14.8,92.9,12.4,135-6.6
			c24.7-11.2,48.8-31.2,51.1-58.1c3.5-41.3-42.4-67.2-81-82.2c-69.6-27-139.1-54-208.7-81c-50.8-19.7-103.3-39.7-157.7-38.3
			c-96.3,2.5-177.7,70.4-270.2,97.3c-62.8,18.2-131.2,16.8-193.3-3.9c-45.8-15.3-91.7-45.6-103.6-92.4c-8-31.6,0.8-65-2.8-97.4
			c-6.1-53.7-46.5-98.5-94-124.2s-101.7-35.5-154.9-44.9c-57.6-10.2-115.2-20.4-172.8-30.6c-4.7-0.8-9.5-1.7-14.2-0.8
			c-27.1,5.3-14.7,48.7-29,72.4"/>
		<path class="st3" d="M-22.7,714.5c-13.5-46.5,34.8-86.7,79-106.5c47.1-21.1,100.6-35.9,150-20.8c52.3,16,89,61.7,133.8,93
			c77.4,54.2,184.2,63.4,269.7,23.3c30-14.1,57.1-33.5,87-47.9c105.2-50.5,241-27.3,323.5,55.2c-1.3-44.4-38.8-79.2-77.6-100.8
			c-57.5-32.1-124.1-47.7-189.9-44.3c-51.3,2.6-102.3,16.5-153.5,11.7c-58.8-5.5-114.8-36.8-150.3-84c-27.3-36.3-42.2-80.2-61-121.5
			c-40.6-89.2-101.5-169-176.7-231.8c-36.1-30.1-76.1-56.7-121.2-70.1C45,56.4-5.6,57.2-47,79.6c-59.5,32.2-89.4,103.9-88.9,171.6
			c0.5,67.7,26.3,132.5,54.8,193.8"/>
	</g>
	<g style="clip-path:url(#SVGID_00000105388747589937895080000007924620186409762209_);">
		<circle class="st4" cx="206" cy="308" r="5"/>
		<circle class="st4" cx="170.5" cy="391.5" r="3.5"/>
		<circle class="st4" cx="244" cy="393" r="2"/>
		<circle class="st4" cx="244" cy="459" r="2"/>
		<circle class="st4" cx="342" cy="582" r="4"/>
		<circle class="st4" cx="386.5" cy="537.5" r="4.5"/>
		<circle class="st4" cx="332" cy="493" r="6"/>
		<circle class="st4" cx="430" cy="639" r="5"/>
		<circle class="st4" cx="487" cy="607" r="6"/>
		<circle class="st4" cx="329" cy="697" r="3"/>
		<circle class="st4" cx="208.5" cy="812.5" r="2.5"/>
		<circle class="st4" cx="235.5" cy="717.5" r="6.5"/>
		<circle class="st4" cx="232.5" cy="875.5" r="3.5"/>
		<circle class="st4" cx="316.5" cy="923.5" r="3.5"/>
		<circle class="st4" cx="364.5" cy="868.5" r="3.5"/>
		<circle class="st4" cx="295.5" cy="842.5" r="9.5"/>
		<circle class="st4" cx="173" cy="870" r="2"/>
		<circle class="st4" cx="170.5" cy="801.5" r="3.5"/>
		<circle class="st4" cx="111.5" cy="921.5" r="1.5"/>
		<circle class="st4" cx="492.5" cy="1012.5" r="11.5"/>
		<circle class="st4" cx="548" cy="924" r="3"/>
		<circle class="st4" cx="577.5" cy="1004.5" r="3.5"/>
		<circle class="st4" cx="487" cy="953" r="6"/>
		<circle class="st4" cx="436" cy="1018" r="6"/>
		<circle class="st4" cx="657.5" cy="1106.5" r="14.5"/>
		<circle class="st4" cx="753" cy="964" r="5"/>
		<circle class="st4" cx="814.5" cy="1002.5" r="1.5"/>
		<circle class="st4" cx="898.5" cy="904.5" r="15.5"/>
		<circle class="st4" cx="767" cy="529" r="9"/>
		<circle class="st4" cx="863" cy="434" r="7"/>
		<circle class="st4" cx="728" cy="385" r="6"/>
		<circle class="st4" cx="563" cy="252" r="2"/>
		<circle class="st4" cx="487.5" cy="240.5" r="2.5"/>
		<circle class="st4" cx="491.5" cy="183.5" r="6.5"/>
		<circle class="st4" cx="430.5" cy="236.5" r="3.5"/>
		<circle class="st4" cx="486" cy="328" r="4"/>
		<circle class="st4" cx="521" cy="316" r="3"/>
		<circle class="st4" cx="525.5" cy="400.5" r="7.5"/>
		<circle class="st4" cx="578" cy="373" r="2"/>
		<circle class="st4" cx="734" cy="134" r="6"/>
		<circle class="st4" cx="831" cy="128" r="5"/>
		<circle class="st4" cx="903.5" cy="285.5" r="1.5"/>
		<circle class="st4" cx="976" cy="206" r="2"/>
		<circle class="st4" cx="1034" cy="404" r="4"/>
		<circle class="st4" cx="1058.5" cy="388.5" r="3.5"/>
		<circle class="st4" cx="1065" cy="574" r="6"/>
		<circle class="st4" cx="1094" cy="550" r="3"/>
		<circle class="st4" cx="1022.5" cy="713.5" r="7.5"/>
		<circle class="st4" cx="1003" cy="664" r="5"/>
		<circle class="st4" cx="952.5" cy="666.5" r="2.5"/>
		<circle class="st4" cx="1000.5" cy="825.5" r="7.5"/>
		<circle class="st4" cx="1052.5" cy="802.5" r="3.5"/>
		<circle class="st4" cx="1060" cy="845" r="1"/>
		<circle class="st4" cx="1179" cy="742" r="6"/>
		<circle class="st4" cx="1200" cy="942" r="7"/>
		<circle class="st4" cx="1267.5" cy="909.5" r="7.5"/>
		<circle class="st4" cx="1166.5" cy="1106.5" r="4.5"/>
		<circle class="st4" cx="1208.5" cy="1093.5" r="1.5"/>
		<circle class="st4" cx="1028.5" cy="1297.5" r="7.5"/>
		<circle class="st4" cx="1071.5" cy="1273.5" r="2.5"/>
		<circle class="st4" cx="879.5" cy="1405.5" r="6.5"/>
		<circle class="st4" cx="887" cy="1317" r="8"/>
		<circle class="st4" cx="709" cy="1434" r="14"/>
		<circle class="st4" cx="754" cy="1391" r="4"/>
		<circle class="st4" cx="717.5" cy="1261.5" r="5.5"/>
		<circle class="st4" cx="836.5" cy="1132.5" r="5.5"/>
		<circle class="st4" cx="905" cy="1047" r="4"/>
		<circle class="st4" cx="586" cy="1230" r="8"/>
	</g>
	<g style="clip-path:url(#SVGID_00000105388747589937895080000007924620186409762209_);">
		<circle class="st4" cx="1371" cy="541" r="5"/>
		<circle class="st4" cx="1335.5" cy="624.5" r="3.5"/>
		<circle class="st4" cx="1409" cy="626" r="2"/>
		<circle class="st4" cx="1409" cy="692" r="2"/>
		<circle class="st4" cx="1507" cy="815" r="4"/>
		<circle class="st4" cx="1551.5" cy="770.5" r="4.5"/>
		<circle class="st4" cx="1497" cy="726" r="6"/>
		<circle class="st4" cx="1595" cy="872" r="5"/>
		<circle class="st4" cx="1652" cy="840" r="6"/>
		<circle class="st4" cx="1494" cy="930" r="3"/>
		<circle class="st4" cx="1373.5" cy="1045.5" r="2.5"/>
		<circle class="st4" cx="1400.5" cy="950.5" r="6.5"/>
		<circle class="st4" cx="1397.5" cy="1108.5" r="3.5"/>
		<circle class="st4" cx="1481.5" cy="1156.5" r="3.5"/>
		<circle class="st4" cx="1529.5" cy="1101.5" r="3.5"/>
		<circle class="st4" cx="1460.5" cy="1075.5" r="9.5"/>
		<circle class="st4" cx="1338" cy="1103" r="2"/>
		<circle class="st4" cx="1335.5" cy="1034.5" r="3.5"/>
		<circle class="st4" cx="1276.5" cy="1154.5" r="1.5"/>
		<circle class="st4" cx="1657.5" cy="1245.5" r="11.5"/>
		<circle class="st4" cx="1713" cy="1157" r="3"/>
		<circle class="st4" cx="1742.5" cy="1237.5" r="3.5"/>
		<circle class="st4" cx="1652" cy="1186" r="6"/>
		<circle class="st4" cx="1601" cy="1251" r="6"/>
		<circle class="st4" cx="1822.5" cy="1339.5" r="14.5"/>
		<circle class="st4" cx="1918" cy="1197" r="5"/>
		<circle class="st4" cx="1979.5" cy="1235.5" r="1.5"/>
		<circle class="st4" cx="2063.5" cy="1137.5" r="15.5"/>
		<circle class="st4" cx="1932" cy="762" r="9"/>
		<circle class="st4" cx="2028" cy="667" r="7"/>
		<circle class="st4" cx="1893" cy="618" r="6"/>
		<circle class="st4" cx="1728" cy="485" r="2"/>
		<circle class="st4" cx="1652.5" cy="473.5" r="2.5"/>
		<circle class="st4" cx="1656.5" cy="416.5" r="6.5"/>
		<circle class="st4" cx="1595.5" cy="469.5" r="3.5"/>
		<circle class="st4" cx="1651" cy="561" r="4"/>
		<circle class="st4" cx="1686" cy="549" r="3"/>
		<circle class="st4" cx="1690.5" cy="633.5" r="7.5"/>
		<circle class="st4" cx="1743" cy="606" r="2"/>
		<circle class="st4" cx="1899" cy="367" r="6"/>
		<circle class="st4" cx="1996" cy="361" r="5"/>
		<circle class="st4" cx="2068.5" cy="518.5" r="1.5"/>
		<circle class="st4" cx="2141" cy="439" r="2"/>
		<circle class="st4" cx="2199" cy="637" r="4"/>
		<circle class="st4" cx="2223.5" cy="621.5" r="3.5"/>
		<circle class="st4" cx="2230" cy="807" r="6"/>
		<circle class="st4" cx="2259" cy="783" r="3"/>
		<circle class="st4" cx="2187.5" cy="946.5" r="7.5"/>
		<circle class="st4" cx="2168" cy="897" r="5"/>
		<circle class="st4" cx="2117.5" cy="899.5" r="2.5"/>
		<circle class="st4" cx="2165.5" cy="1058.5" r="7.5"/>
		<circle class="st4" cx="2217.5" cy="1035.5" r="3.5"/>
		<circle class="st4" cx="2225" cy="1078" r="1"/>
		<circle class="st4" cx="2344" cy="975" r="6"/>
		<circle class="st4" cx="2365" cy="1175" r="7"/>
		<circle class="st4" cx="2432.5" cy="1142.5" r="7.5"/>
		<circle class="st4" cx="2331.5" cy="1339.5" r="4.5"/>
		<circle class="st4" cx="2373.5" cy="1326.5" r="1.5"/>
		<circle class="st4" cx="2193.5" cy="1530.5" r="7.5"/>
		<circle class="st4" cx="2236.5" cy="1506.5" r="2.5"/>
		<circle class="st4" cx="2044.5" cy="1638.5" r="6.5"/>
		<circle class="st4" cx="2052" cy="1550" r="8"/>
		<circle class="st4" cx="1874" cy="1667" r="14"/>
		<circle class="st4" cx="1919" cy="1624" r="4"/>
		<circle class="st4" cx="1882.5" cy="1494.5" r="5.5"/>
		<circle class="st4" cx="2001.5" cy="1365.5" r="5.5"/>
		<circle class="st4" cx="2070" cy="1280" r="4"/>
		<circle class="st4" cx="1751" cy="1463" r="8"/>
	</g>
	<g style="clip-path:url(#SVGID_00000105388747589937895080000007924620186409762209_);">
		<path class="st4" d="M717.9,655.9c-2.3,1.6-5.4,1-6.9-1.3c-1.6-2.3-1-5.4,1.3-6.9c2.3-1.6,5.4-1,6.9,1.3S720.2,654.3,717.9,655.9z
			"/>
		<path class="st4" d="M628.1,672.2c-1.6,1.1-3.8,0.7-4.9-0.9c-1.1-1.6-0.7-3.8,0.9-4.9c1.6-1.1,3.8-0.7,4.9,0.9
			C630.1,668.9,629.7,671.1,628.1,672.2z"/>
		<path class="st4" d="M667.3,732.6c-0.9,0.6-2.2,0.4-2.8-0.5c-0.6-0.9-0.4-2.2,0.5-2.8c0.9-0.6,2.2-0.4,2.8,0.5
			C668.4,730.7,668.2,732,667.3,732.6z"/>
		<path class="st4" d="M612.7,769.7c-0.9,0.6-2.2,0.4-2.8-0.5s-0.4-2.2,0.5-2.8c0.9-0.6,2.2-0.4,2.8,0.5
			C613.8,767.8,613.6,769.1,612.7,769.7z"/>
		<path class="st4" d="M567.1,921.5c-1.8,1.2-4.3,0.8-5.6-1.1c-1.2-1.8-0.8-4.3,1.1-5.6c1.8-1.2,4.3-0.8,5.6,1.1
			C569.4,917.8,569,920.3,567.1,921.5z"/>
		<path class="st4" d="M629.2,933.7c-2.1,1.4-4.9,0.9-6.3-1.2c-1.4-2.1-0.9-4.9,1.2-6.3c2.1-1.4,4.9-0.9,6.3,1.2
			C631.8,929.6,631.3,932.3,629.2,933.7z"/>
		<path class="st4" d="M636.2,864.9c-2.7,1.9-6.5,1.1-8.3-1.6c-1.9-2.7-1.1-6.5,1.6-8.3c2.7-1.9,6.5-1.1,8.3,1.6
			C639.7,859.3,639,863,636.2,864.9z"/>
		<path class="st4" d="M570,1027.2c-2.3,1.6-5.4,1-6.9-1.3s-1-5.4,1.3-6.9c2.3-1.6,5.4-1,6.9,1.3S572.3,1025.6,570,1027.2z"/>
		<path class="st4" d="M629,1057.2c-2.7,1.9-6.5,1.1-8.3-1.6c-1.9-2.7-1.1-6.5,1.6-8.3c2.7-1.9,6.5-1.1,8.3,1.6
			C632.5,1051.6,631.8,1055.3,629,1057.2z"/>
		<path class="st4" d="M464.1,974.6c-1.4,0.9-3.2,0.6-4.2-0.8c-0.9-1.4-0.6-3.2,0.8-4.2c1.4-0.9,3.2-0.6,4.2,0.8
			C465.9,971.8,465.5,973.6,464.1,974.6z"/>
		<path class="st4" d="M300.6,939.4c-1.1,0.8-2.7,0.5-3.5-0.7c-0.8-1.1-0.5-2.7,0.7-3.5c1.1-0.8,2.7-0.5,3.5,0.7
			C302,937.1,301.7,938.6,300.6,939.4z"/>
		<path class="st4" d="M396.6,911.6c-3,2-7,1.2-9-1.7c-2-3-1.2-7,1.7-9c3-2,7-1.2,9,1.7C400.3,905.6,399.6,909.6,396.6,911.6z"/>
		<path class="st4" d="M262.5,995.5c-1.6,1.1-3.8,0.7-4.9-0.9c-1.1-1.6-0.7-3.8,0.9-4.9c1.6-1.1,3.8-0.7,4.9,0.9
			C264.5,992.2,264.1,994.4,262.5,995.5z"/>
		<path class="st4" d="M270,1091.9c-1.6,1.1-3.8,0.7-4.9-0.9c-1.1-1.6-0.7-3.8,0.9-4.9c1.6-1.1,3.8-0.7,4.9,0.9
			C272,1088.7,271.6,1090.8,270,1091.9z"/>
		<path class="st4" d="M342.5,1100.7c1.6-1.1,2-3.3,0.9-4.9s-3.3-2-4.9-0.9c-1.6,1.1-2,3.3-0.9,4.9
			C338.7,1101.4,340.9,1101.8,342.5,1100.7z"/>
		<path class="st4" d="M328.6,1034c-4.3,2.9-10.2,1.8-13.2-2.5c-2.9-4.3-1.8-10.2,2.5-13.2c4.3-2.9,10.2-1.8,13.2,2.5
			C334.1,1025.1,332.9,1031,328.6,1034z"/>
		<path class="st4" d="M232.8,941.9c-0.9,0.6-2.2,0.4-2.8-0.5c-0.6-0.9-0.4-2.2,0.5-2.8c0.9-0.6,2.2-0.4,2.8,0.5
			S233.7,941.3,232.8,941.9z"/>
		<path class="st4" d="M288.9,902.6c-1.6,1.1-3.8,0.7-4.9-0.9c-1.1-1.6-0.7-3.8,0.9-4.9c1.6-1.1,3.8-0.7,4.9,0.9
			C290.9,899.3,290.5,901.5,288.9,902.6z"/>
		<path class="st4" d="M155.4,919.6c-0.7,0.5-1.6,0.3-2.1-0.4s-0.3-1.6,0.4-2.1c0.7-0.5,1.6-0.3,2.1,0.4
			C156.2,918.2,156.1,919.1,155.4,919.6z"/>
		<path class="st4" d="M299.8,1294.1c-5.3,3.6-12.4,2.2-16-3.1c-3.6-5.3-2.2-12.4,3.1-16c5.3-3.6,12.4-2.2,16,3.1
			C306.4,1283.4,305.1,1290.6,299.8,1294.1z"/>
		<path class="st4" d="M399.4,1283.3c-1.4,0.9-3.2,0.6-4.2-0.8c-0.9-1.4-0.6-3.2,0.8-4.2c1.4-0.9,3.2-0.6,4.2,0.8
			C401.1,1280.5,400.8,1282.3,399.4,1283.3z"/>
		<path class="st4" d="M349.7,1353.3c-1.6,1.1-3.8,0.7-4.9-0.9c-1.1-1.6-0.7-3.8,0.9-4.9c1.6-1.1,3.8-0.7,4.9,0.9
			C351.7,1350.1,351.3,1352.2,349.7,1353.3z"/>
		<path class="st4" d="M342.8,1251.6c-2.7,1.9-6.5,1.1-8.3-1.6c-1.9-2.7-1.1-6.5,1.6-8.3c2.7-1.9,6.5-1.1,8.3,1.6
			C346.3,1246,345.6,1249.7,342.8,1251.6z"/>
		<path class="st4" d="M260.4,1245.9c-2.7,1.9-6.5,1.1-8.3-1.6c-1.9-2.7-1.1-6.5,1.6-8.3c2.7-1.9,6.5-1.1,8.3,1.6
			C263.9,1240.3,263.2,1244.1,260.4,1245.9z"/>
		
			<ellipse transform="matrix(0.6192 -0.7852 0.7852 0.6192 -1039.9717 803.359)" class="st4" cx="308.3" cy="1473.9" rx="14.5" ry="14.5"/>
		<path class="st4" d="M482.7,1477c-2.3,1.6-5.4,1-6.9-1.3c-1.6-2.3-1-5.4,1.3-6.9c2.3-1.6,5.4-1,6.9,1.3
			C485.5,1472.3,484.9,1475.4,482.7,1477z"/>
		<path class="st4" d="M483.4,1546.6c-0.7,0.5-1.6,0.3-2.1-0.4c-0.5-0.7-0.3-1.6,0.4-2.1c0.7-0.5,1.6-0.3,2.1,0.4
			C484.3,1545.2,484.1,1546.1,483.4,1546.6z"/>
		
			<ellipse transform="matrix(0.4937 -0.8696 0.8696 0.4937 -1047.1755 1320.9579)" class="st4" cx="610.8" cy="1559.8" rx="15.5" ry="15.5"/>
		<path class="st4" d="M852.6,1247.4c-4.1,2.8-9.7,1.7-12.5-2.4c-2.8-4.1-1.7-9.7,2.4-12.5c4.1-2.8,9.7-1.7,12.5,2.4
			C857.8,1239,856.7,1244.6,852.6,1247.4z"/>
		<ellipse transform="matrix(0.7506 -0.6608 0.6608 0.7506 -592.1215 963.4283)" class="st4" cx="980.1" cy="1266" rx="7" ry="7"/>
		<path class="st4" d="M948.1,1131.8c-2.7,1.9-6.5,1.1-8.3-1.6c-1.9-2.7-1.1-6.5,1.6-8.3c2.7-1.9,6.5-1.1,8.3,1.6
			C951.6,1126.2,950.8,1129.9,948.1,1131.8z"/>
		<path class="st4" d="M963.2,917.2c-0.9,0.6-2.2,0.4-2.8-0.5c-0.6-0.9-0.4-2.2,0.5-2.8c0.9-0.6,2.2-0.4,2.8,0.5
			C964.3,915.4,964.1,916.6,963.2,917.2z"/>
		<path class="st4" d="M930.5,848.7c-1.1,0.8-2.7,0.5-3.5-0.7c-0.8-1.1-0.5-2.7,0.7-3.5c1.1-0.8,2.7-0.5,3.5,0.7
			C932,846.4,931.7,848,930.5,848.7z"/>
		<path class="st4" d="M982.2,823.3c-3,2-7,1.2-9-1.7c-2-3-1.2-7,1.7-9c3-2,7-1.2,9,1.7C985.9,817.3,985.1,821.3,982.2,823.3z"/>
		<path class="st4" d="M902.4,800.2c-1.6,1.1-3.8,0.7-4.9-0.9c-1.1-1.6-0.7-3.8,0.9-4.9c1.6-1.1,3.8-0.7,4.9,0.9
			C904.4,796.9,904,799.1,902.4,800.2z"/>
		<path class="st4" d="M858.1,897.9c-1.8,1.2-4.3,0.8-5.6-1.1c-1.2-1.8-0.8-4.3,1.1-5.6c1.8-1.2,4.3-0.8,5.6,1.1
			C860.5,894.2,860,896.7,858.1,897.9z"/>
		<path class="st4" d="M887.2,919.3c-1.4,0.9-3.2,0.6-4.2-0.8c-0.9-1.4-0.6-3.2,0.8-4.2c1.4-0.9,3.2-0.6,4.2,0.8
			C888.9,916.5,888.6,918.4,887.2,919.3z"/>
		<path class="st4" d="M822.3,974.2c-3.4,2.3-8.1,1.4-10.4-2c-2.3-3.4-1.4-8.1,2-10.4c3.4-2.3,8.1-1.4,10.4,2
			C826.7,967.2,825.8,971.9,822.3,974.2z"/>
		<path class="st4" d="M871.5,997.6c-0.9,0.6-2.2,0.4-2.8-0.5c-0.6-0.9-0.4-2.2,0.5-2.8c0.9-0.6,2.2-0.4,2.8,0.5
			C872.6,995.8,872.4,997,871.5,997.6z"/>
		<path class="st4" d="M1159.1,995.7c-2.7,1.9-6.5,1.1-8.3-1.6c-1.9-2.7-1.1-6.5,1.6-8.3c2.7-1.9,6.5-1.1,8.3,1.6
			C1162.6,990.1,1161.8,993.8,1159.1,995.7z"/>
		<path class="st4" d="M1218,1071.7c-2.3,1.6-5.4,1-6.9-1.3c-1.6-2.3-1-5.4,1.3-6.9c2.3-1.6,5.4-1,6.9,1.3
			C1220.9,1067.1,1220.3,1070.2,1218,1071.7z"/>
		<path class="st4" d="M1126.5,1217.3c-0.7,0.5-1.6,0.3-2.1-0.4c-0.5-0.7-0.3-1.6,0.4-2.1c0.7-0.5,1.6-0.3,2.1,0.4
			C1127.4,1215.9,1127.2,1216.8,1126.5,1217.3z"/>
		<path class="st4" d="M1233.3,1233c-0.9,0.6-2.2,0.4-2.8-0.5c-0.6-0.9-0.4-2.2,0.5-2.8c0.9-0.6,2.2-0.4,2.8,0.5
			C1234.4,1231.2,1234.2,1232.4,1233.3,1233z"/>
		<path class="st4" d="M1103.2,1393.9c-1.8,1.2-4.3,0.8-5.6-1.1c-1.2-1.8-0.8-4.3,1.1-5.6c1.8-1.2,4.3-0.8,5.6,1.1
			S1105,1392.7,1103.2,1393.9z"/>
		<path class="st4" d="M1129.5,1405.1c-1.6,1.1-3.8,0.7-4.9-0.9c-1.1-1.6-0.7-3.8,0.9-4.9c1.6-1.1,3.8-0.7,4.9,0.9
			C1131.5,1401.8,1131.1,1404,1129.5,1405.1z"/>
		<path class="st4" d="M981.1,1516.7c-2.7,1.9-6.5,1.1-8.3-1.6c-1.9-2.7-1.1-6.5,1.6-8.3c2.7-1.9,6.5-1.1,8.3,1.6
			C984.6,1511.1,983.9,1514.9,981.1,1516.7z"/>
		<path class="st4" d="M1015.6,1524.8c-1.4,0.9-3.2,0.6-4.2-0.8c-0.9-1.4-0.6-3.2,0.8-4.2c1.4-0.9,3.2-0.6,4.2,0.8
			C1017.3,1522,1017,1523.8,1015.6,1524.8z"/>
		<path class="st4" d="M842.7,1561.2c-3.4,2.3-8.1,1.4-10.4-2c-2.3-3.4-1.4-8.1,2-10.4c3.4-2.3,8.1-1.4,10.4,2
			C847,1554.2,846.1,1558.9,842.7,1561.2z"/>
		<path class="st4" d="M871.3,1515.2c-2.3,1.6-5.4,1-6.9-1.3s-1-5.4,1.3-6.9c2.3-1.6,5.4-1,6.9,1.3S873.6,1513.7,871.3,1515.2z"/>
		<path class="st4" d="M839.4,1472.8c-1.1,0.8-2.7,0.5-3.5-0.7c-0.8-1.1-0.5-2.7,0.7-3.5s2.7-0.5,3.5,0.7
			C840.9,1470.4,840.6,1472,839.4,1472.8z"/>
		<path class="st4" d="M737.7,1606c-3.4,2.3-8.1,1.4-10.4-2c-2.3-3.4-1.4-8.1,2-10.4c3.4-2.3,8.1-1.4,10.4,2
			C742,1599,741.1,1603.6,737.7,1606z"/>
		<path class="st4" d="M783.7,1632.7c1.6-1.1,2-3.3,0.9-4.9c-1.1-1.6-3.3-2-4.9-0.9c-1.6,1.1-2,3.3-0.9,4.9
			C779.9,1633.4,782.1,1633.8,783.7,1632.7z"/>
		<path class="st4" d="M751.4,1660.8c-0.5,0.3-1.1,0.2-1.4-0.3c-0.3-0.5-0.2-1.1,0.3-1.4c0.5-0.3,1.1-0.2,1.4,0.3
			C751.9,1659.8,751.8,1660.4,751.4,1660.8z"/>
		<path class="st4" d="M906.2,1705.4c-2.7,1.9-6.5,1.1-8.3-1.6c-1.9-2.7-1.1-6.5,1.6-8.3c2.7-1.9,6.5-1.1,8.3,1.6
			C909.7,1699.9,909,1703.6,906.2,1705.4z"/>
		
			<ellipse transform="matrix(0.7506 -0.6608 0.6608 0.7506 -1022.5422 951.6265)" class="st4" cx="749.2" cy="1830.2" rx="7" ry="7"/>
		<path class="st4" d="M818.3,1874c-3.4,2.3-8.1,1.4-10.4-2c-2.3-3.4-1.4-8.1,2-10.4c3.4-2.3,8.1-1.4,10.4,2
			C822.6,1867,821.7,1871.7,818.3,1874z"/>
		<path class="st4" d="M596.9,1898.7c-2.1,1.4-4.9,0.9-6.3-1.2c-1.4-2.1-0.9-4.9,1.2-6.3c2.1-1.4,4.9-0.9,6.3,1.2
			C599.4,1894.5,598.9,1897.3,596.9,1898.7z"/>
		<path class="st4" d="M629.5,1923.6c-0.7,0.5-1.6,0.3-2.1-0.4c-0.5-0.7-0.3-1.6,0.4-2.1c0.7-0.5,1.6-0.3,2.1,0.4
			S630.2,1923.2,629.5,1923.6z"/>
		<path class="st4" d="M363,1894.3c-3.4,2.3-8.1,1.4-10.4-2c-2.3-3.4-1.4-8.1,2-10.4s8.1-1.4,10.4,2
			C367.3,1887.4,366.4,1892,363,1894.3z"/>
		<path class="st4" d="M404.2,1912.3c-1.1,0.8-2.7,0.5-3.5-0.7c-0.8-1.1-0.5-2.7,0.7-3.5c1.1-0.8,2.7-0.5,3.5,0.7
			C405.6,1910,405.3,1911.5,404.2,1912.3z"/>
		<path class="st4" d="M189.4,1831c-3,2-7,1.2-9-1.7c-2-3-1.2-7,1.7-9c3-2,7-1.2,9,1.7C193.1,1824.9,192.3,1828.9,189.4,1831z"/>
		<path class="st4" d="M267.6,1788.7c-3.7,2.5-8.6,1.5-11.1-2.1c-2.5-3.7-1.5-8.6,2.1-11.1c3.7-2.5,8.6-1.5,11.1,2.1
			C272.2,1781.2,271.3,1786.2,267.6,1788.7z"/>
		
			<ellipse transform="matrix(0.1876 -0.9823 0.9823 0.1876 -1616.4774 1446.7466)" class="st4" cx="66.3" cy="1700.6" rx="14" ry="14"/>
		<path class="st4" d="M129.4,1716.9c-1.8,1.2-4.3,0.8-5.6-1.1s-0.8-4.3,1.1-5.6c1.8-1.2,4.3-0.8,5.6,1.1
			C131.7,1713.2,131.3,1715.7,129.4,1716.9z"/>
		<path class="st4" d="M216.9,1615.2c-2.5,1.7-5.9,1.1-7.6-1.5c-1.7-2.5-1.1-5.9,1.5-7.6c2.5-1.7,5.9-1.1,7.6,1.5
			C220.1,1610.1,219.4,1613.5,216.9,1615.2z"/>
		<path class="st4" d="M390.5,1641.2c-2.5,1.7-5.9,1.1-7.6-1.5c-1.7-2.5-1.1-5.9,1.5-7.6c2.5-1.7,5.9-1.1,7.6,1.5
			C393.6,1636,393,1639.4,390.5,1641.2z"/>
		<path class="st4" d="M498.8,1648.5c-1.8,1.2-4.3,0.8-5.6-1.1s-0.8-4.3,1.1-5.6c1.8-1.2,4.3-0.8,5.6,1.1
			C501.1,1644.8,500.7,1647.3,498.8,1648.5z"/>
		<path class="st4" d="M170.5,1490.8c-3.7,2.5-8.6,1.5-11.1-2.1c-2.5-3.7-1.5-8.6,2.1-11.1c3.7-2.5,8.6-1.5,11.1,2.1
			C175.1,1483.3,174.1,1488.3,170.5,1490.8z"/>
	</g>
	<g style="clip-path:url(#SVGID_00000105388747589937895080000007924620186409762209_);">
		<circle class="st4" cx="1737" cy="288" r="5"/>
		<circle class="st4" cx="1701.5" cy="371.5" r="3.5"/>
		<circle class="st4" cx="1775" cy="373" r="2"/>
		<circle class="st4" cx="1775" cy="439" r="2"/>
		<circle class="st4" cx="1873" cy="562" r="4"/>
		<circle class="st4" cx="1917.5" cy="517.5" r="4.5"/>
		<circle class="st4" cx="1863" cy="473" r="6"/>
		<circle class="st4" cx="1961" cy="619" r="5"/>
		<circle class="st4" cx="2018" cy="587" r="6"/>
		<circle class="st4" cx="1860" cy="677" r="3"/>
		<circle class="st4" cx="1739.5" cy="792.5" r="2.5"/>
		<circle class="st4" cx="1766.5" cy="697.5" r="6.5"/>
		<circle class="st4" cx="1763.5" cy="855.5" r="3.5"/>
		<circle class="st4" cx="1847.5" cy="903.5" r="3.5"/>
		<circle class="st4" cx="1895.5" cy="848.5" r="3.5"/>
		<circle class="st4" cx="1826.5" cy="822.5" r="9.5"/>
		<circle class="st4" cx="1704" cy="850" r="2"/>
		<circle class="st4" cx="1701.5" cy="781.5" r="3.5"/>
		<circle class="st4" cx="1642.5" cy="901.5" r="1.5"/>
		<circle class="st4" cx="2023.5" cy="992.5" r="11.5"/>
		<circle class="st4" cx="2079" cy="904" r="3"/>
		<circle class="st4" cx="2108.5" cy="984.5" r="3.5"/>
		<circle class="st4" cx="2018" cy="933" r="6"/>
		<circle class="st4" cx="1967" cy="998" r="6"/>
		<circle class="st4" cx="2188.5" cy="1086.5" r="14.5"/>
		<circle class="st4" cx="2284" cy="944" r="5"/>
		<circle class="st4" cx="2345.5" cy="982.5" r="1.5"/>
		<circle class="st4" cx="2429.5" cy="884.5" r="15.5"/>
		<circle class="st4" cx="2298" cy="509" r="9"/>
		<circle class="st4" cx="2394" cy="414" r="7"/>
		<circle class="st4" cx="2259" cy="365" r="6"/>
		<circle class="st4" cx="2094" cy="232" r="2"/>
		<circle class="st4" cx="2018.5" cy="220.5" r="2.5"/>
		<circle class="st4" cx="2022.5" cy="163.5" r="6.5"/>
		<circle class="st4" cx="1961.5" cy="216.5" r="3.5"/>
		<circle class="st4" cx="2017" cy="308" r="4"/>
		<circle class="st4" cx="2052" cy="296" r="3"/>
		<circle class="st4" cx="2056.5" cy="380.5" r="7.5"/>
		<circle class="st4" cx="2109" cy="353" r="2"/>
		<circle class="st4" cx="2265" cy="114" r="6"/>
		<circle class="st4" cx="2362" cy="108" r="5"/>
		<circle class="st4" cx="2434.5" cy="265.5" r="1.5"/>
		<circle class="st4" cx="2507" cy="186" r="2"/>
		<circle class="st4" cx="2565" cy="384" r="4"/>
		<circle class="st4" cx="2589.5" cy="368.5" r="3.5"/>
		<circle class="st4" cx="2596" cy="554" r="6"/>
		<circle class="st4" cx="2625" cy="530" r="3"/>
		<circle class="st4" cx="2553.5" cy="693.5" r="7.5"/>
		<circle class="st4" cx="2534" cy="644" r="5"/>
		<circle class="st4" cx="2483.5" cy="646.5" r="2.5"/>
		<circle class="st4" cx="2531.5" cy="805.5" r="7.5"/>
		<circle class="st4" cx="2583.5" cy="782.5" r="3.5"/>
		<circle class="st4" cx="2591" cy="825" r="1"/>
		<circle class="st4" cx="2710" cy="722" r="6"/>
		<circle class="st4" cx="2731" cy="922" r="7"/>
		<circle class="st4" cx="2798.5" cy="889.5" r="7.5"/>
		<circle class="st4" cx="2697.5" cy="1086.5" r="4.5"/>
		<circle class="st4" cx="2739.5" cy="1073.5" r="1.5"/>
		<circle class="st4" cx="2559.5" cy="1277.5" r="7.5"/>
		<circle class="st4" cx="2602.5" cy="1253.5" r="2.5"/>
		<circle class="st4" cx="2410.5" cy="1385.5" r="6.5"/>
		<circle class="st4" cx="2418" cy="1297" r="8"/>
		<circle class="st4" cx="2240" cy="1414" r="14"/>
		<circle class="st4" cx="2285" cy="1371" r="4"/>
		<circle class="st4" cx="2248.5" cy="1241.5" r="5.5"/>
		<circle class="st4" cx="2367.5" cy="1112.5" r="5.5"/>
		<circle class="st4" cx="2436" cy="1027" r="4"/>
		<circle class="st4" cx="2117" cy="1210" r="8"/>
	</g>
	<g style="clip-path:url(#SVGID_00000105388747589937895080000007924620186409762209_);">
		<polygon class="st4" points="316,1483.9 357,1479.2 316,1479.8 333.8,1460 315.4,1479.2 311.3,1438.5 311.3,1479.2 292.5,1461 
			310.2,1480.2 270,1484.9 310.9,1484.3 293.6,1504.9 311.6,1484.8 315.7,1525.6 315.7,1485.8 334.8,1503.9 		"/>
	</g>
	<g style="clip-path:url(#SVGID_00000105388747589937895080000007924620186409762209_);">
		<polygon class="st4" points="626,1051.9 667,1047.2 626,1047.8 643.8,1028 625.4,1047.2 621.3,1006.5 621.3,1047.2 602.5,1029 
			620.2,1048.2 580,1052.9 620.9,1052.3 603.6,1072.9 621.6,1052.8 625.7,1093.6 625.7,1053.8 644.8,1071.9 		"/>
	</g>
	<g style="clip-path:url(#SVGID_00000105388747589937895080000007924620186409762209_);">
		<polygon class="st4" points="1694,553.9 1735,549.2 1694,549.8 1711.8,530 1693.4,549.2 1689.3,508.5 1689.3,549.2 1670.5,531 
			1688.2,550.2 1648,554.9 1688.9,554.3 1671.6,574.9 1689.6,554.8 1693.7,595.6 1693.7,555.8 1712.8,573.9 		"/>
	</g>
	<g style="clip-path:url(#SVGID_00000105388747589937895080000007924620186409762209_);">
		<polygon class="st4" points="505,1651.9 546,1647.2 505,1647.8 522.8,1628 504.4,1647.2 500.3,1606.5 500.3,1647.2 481.5,1629 
			499.2,1648.2 459,1652.9 499.9,1652.3 482.6,1672.9 500.6,1652.8 504.7,1693.6 504.7,1653.8 523.8,1671.9 		"/>
	</g>
</g>
</svg>
