<?xml version="1.0" encoding="utf-8"?>
<!-- Generator: Adobe Illustrator 27.5.0, SVG Export Plug-In . SVG Version: 6.00 Build 0)  -->
<svg version="1.1" id="Layer_4_copy" xmlns="http://www.w3.org/2000/svg" xmlns:xlink="http://www.w3.org/1999/xlink" x="0px"
	 y="0px" viewBox="0 0 400.7 241.5" style="enable-background:new 0 0 400.7 241.5;" xml:space="preserve">
<style type="text/css">
	.st0{opacity:0.55;fill:#ADC5DA;}
	.st1{opacity:0.23;fill:#ADC5DA;}
	.st2{opacity:0.81;fill:#ADC5DA;}
	.st3{fill:#F6F9F1;}
	.st4{opacity:0.27;fill:#F0F7F1;}
	.st5{fill:#56A7C9;}
	.st6{fill:#85B9D0;}
	.st7{fill:#3E6B89;}
	.st8{fill:#A7A4A1;}
	.st9{fill:#7B766F;}
	.st10{opacity:0.57;fill:#9B8F84;}
	.st11{opacity:0.4;fill:#9B8F84;}
	.st12{fill:#DED8D2;}
	.st13{opacity:0.72;fill:#8F847B;}
	.st14{fill:#B0A295;}
	.st15{fill:#554F4A;}
	.st16{fill:#3E3C39;}
	.st17{fill:#B8486D;}
	.st18{fill:#A96199;}
	.st19{fill:#272625;}
	.st20{opacity:0.52;fill:#A44D8E;}
	.st21{opacity:0.64;fill:#F6F9F1;}
	.st22{fill:none;}
	.st23{fill:#8DB831;}
	.st24{opacity:0.81;fill:#5D7B1D;enable-background:new    ;}
	.st25{fill:#FFFFFF;}
	.st26{fill:#272347;}
	.st27{opacity:0.85;fill:#AADB3E;enable-background:new    ;}
	.st28{fill:#F0F1F1;}
</style>
<g>
	<path class="st0" d="M349.6,124.1c-8.6,8.1-76.1,13.9-148.8,13.9c-72.7,0-140.2-5.8-148.8-13.9c-7-2.1-6.1-33.5,24.1-61.6
		c27.4-28.5,84.2-53.7,124.7-52c40.4-1.7,97.2,23.5,124.7,52C355.7,90.7,356.6,122.1,349.6,124.1z"/>
	<path class="st1" d="M200.8,10.6c-0.9,0-1.8,0-2.7,0c25.3,14.4,54.3,43.1,68.6,68.7c15.5,25.8,16.3,48.5,13.1,56.3
		c36.7-2.4,65.3-6.5,69.8-11.5c7-2.1,6.1-33.5-24.1-61.6C298,34.1,241.2,8.9,200.8,10.6z"/>
	<path class="st2" d="M242.3,16.4c34.5,12.1,70.7,40.4,84.9,64.7c16.2,24.5,10.4,44.9,7.1,47.5c-0.4,0.5-1,0.9-1.8,1.4
		c9.2-1.7,15.3-3.6,17.2-5.7c3.6-2.5,7.6-24.2-12-48.3C320.2,51.9,279.1,25.4,242.3,16.4z"/>
	<g>
		<path class="st3" d="M123.2,53.5c-32,24.3-54.6,65.1-51.4,64.2c8.2,1.2,16.3,2.4,24.3,3.6c0.5-0.1-2.4-2.9,4.6-21.9
			c6.6-22.1,53.6-66.1,58.2-69.4C156.5,31.2,141.4,38.4,123.2,53.5z"/>
		<path class="st3" d="M159,30c0.2-0.1,0.4-0.2,0.4-0.2C159.4,29.7,159.2,29.8,159,30z"/>
	</g>
	<g>
		<path class="st3" d="M267.8,27.9c-0.2,0,18.6,9.6,38.5,26.3c32.1,24.3,48.3,64.4,45.1,63.5c-5.7,0.8-11.3,1.6-16.9,2.4
			c-0.6-0.1,4.1-3.4-2.3-22C329.2,79.1,268.8,26.5,267.8,27.9z"/>
	</g>
	<path class="st4" d="M199.6,58.7c43.1,0,81.1-7.3,98.9-17.4c-30.1-18.9-64.7-30.7-97.7-30.7c-33.4,0-68.5,12.1-98.8,31.4
		C120.4,51.8,157.6,58.8,199.6,58.7z"/>
</g>
<g>
	<path class="st5" d="M232,15c11.6-3.4-3.3-16.7-31.1-14.9c-27.5-0.4-41.6,11.2-30.9,14c5.9,2.7,10.2-0.9,31.1-1
		C222,13.5,225.6,18,232,15z"/>
	<path class="st6" d="M201.1,2.8c-22-0.1-36.7,8.2-30.3,11.7c-0.3-0.1-0.6-0.2-0.8-0.3c-10.7-2.8,3.4-14.5,30.9-14
		C228.7-1.6,243.6,11.7,232,15c-0.3,0.1-0.6,0.3-0.9,0.4C238.4,11.1,223.2,2,201.1,2.8z"/>
	<path class="st5" d="M216.1,10.8c1.3-1.6-4.9-6.5-15-6.3c-10,0-16.1,4.7-14.9,6.2c0.7,1.5,6.3-0.6,15-0.6
		C209.9,10.1,215.4,12.4,216.1,10.8z"/>
	<path class="st7" d="M201.1,12.5c16.6,0.2,25.5,3,29.8,3c-5.5,2.1-10.1-1.9-29.8-2.3c-19.6,0.1-24.9,3.3-30.1,1.4
		C175.3,14.8,184.5,12.4,201.1,12.5z"/>
</g>
<g>
	<path class="st8" d="M400.7,148.2c0,18.1-89.7,93.3-200.3,93.3C89.7,241.5,0,166.3,0,148.2c0-18.1,89.7-53.6,200.3-53.6
		C311,94.7,400.7,130.1,400.7,148.2z"/>
	<path class="st9" d="M129.3,178.9c-25.8-1.6-49-4-68.4-7.1c0,0,26.5,27.5,75.9,57.6c17.4,6.5,35.8,10.9,55,11.9
		C146.5,198.1,143.5,195.4,129.3,178.9z"/>
	<path class="st10" d="M335.2,111.3c-14,33.5-23.4,81.7-94.2,102.7c-22.1,6.6-63.6,14.6-103.5,19.6c19.8,4.9,40.9,7.9,62.8,7.9
		c110.6,0,200.3-75.2,200.3-93.3C400.7,138.6,375.4,123.5,335.2,111.3z"/>
	<path class="st11" d="M157.2,237.8c13.9,2.4,28.3,3.8,43.1,3.8c108.8,0,197.3-72.7,200.2-92.3c-0.5-2.2-2.2-4.3-5.1-6.3
		c-16.8,34.4-106.8,96.3-215.3,96.3C172.3,239.3,164.7,238.7,157.2,237.8z"/>
	<path class="st12" d="M400.7,148.2c0,18.1-89.7,32.8-200.3,32.8C89.7,181,0,166.3,0,148.2c0-18.1,89.7-53.6,200.3-53.6
		C311,94.7,400.7,130.1,400.7,148.2z"/>
	<path class="st13" d="M285.3,177.9C285.3,177.9,285.3,177.9,285.3,177.9c25.4-2,47.8-4.7,66-8.1c-4.3-14.5-16.4-43.1-27.6-61.7
		c-25.8-6.9-56.8-10-90.6-12.3C248.6,112.8,278.7,148,285.3,177.9z"/>
	<path class="st13" d="M60.8,171.8c0.1,0,0.2,0,0.3,0c2.3,0.4,4.6,0.7,7,1.1c0,0,0,0,0.1,0c0.2,0,0.4,0.1,0.6,0.1
		c2.3,0.3,4.7,0.7,7,1c0.3,0,0.6,0.1,0.8,0.1c2.3,0.3,4.7,0.6,7.1,0.9c0.3,0,0.6,0.1,0.9,0.1c2.5,0.3,5,0.6,7.5,0.8
		c0.4,0,0.7,0.1,1.1,0.1c2.5,0.3,5.1,0.5,7.7,0.8c0.1,0,0.2,0,0.3,0c0.2,0,0.4,0,0.5,0.1c2.6,0.2,5.3,0.5,8,0.7c0.2,0,0.3,0,0.5,0
		c0.2,0,0.3,0,0.5,0c2.7,0.2,5.5,0.4,8.2,0.6c0.3,0,0.5,0,0.8,0.1c0.1,0,0.1,0,0.2,0c2.9,0.2,5.8,0.4,8.7,0.6c0.2,0,0.4,0,0.6,0
		c10-29.8,28.7-65.1,41.3-83.3c-4.1,0.2-8.1,0.5-12.1,0.8c-27.8,2.2-53.4,6.5-75.6,11.8C72.7,127.3,59.7,156.2,60.8,171.8z"/>
	<path class="st13" d="M130,99.4c-5.7,0.8-11.2,1.6-16.6,2.5c-9.1,16.3-24.8,47.2-29.7,72.9c0.9,0.1,1.8,0.2,2.7,0.3
		c1.5,0.2,2.9,0.3,4.4,0.5c1.3,0.1,2.7,0.3,4,0.4c1,0.1,1.9,0.2,2.9,0.3c3.5,0.3,7.1,0.7,10.8,1C112.6,149.7,124,115.2,130,99.4z"/>
	<g>
		<g>
			<path class="st14" d="M400.7,148.2c0,2.2-1.3,4.2-2.9,5.7c-1.6,1.5-3.4,2.7-5.3,3.8c-3.8,2.1-7.8,3.7-11.9,5.2
				c-8.2,2.8-16.6,4.9-25.1,6.7c-17,3.5-34.2,5.8-51.4,7.6c-34.5,3.6-69.1,4.9-103.8,5c-34.6-0.1-69.3-1.4-103.8-5
				c-17.2-1.8-34.4-4.2-51.4-7.6c-8.5-1.8-16.9-3.9-25.1-6.7c-4.1-1.4-8.1-3-11.9-5.2c-1.9-1.1-3.7-2.3-5.3-3.8
				c-1.5-1.5-2.9-3.4-2.9-5.7c0,2.2,1.4,4.1,3,5.5c1.6,1.5,3.4,2.6,5.3,3.6c3.8,2,7.9,3.5,12,4.9c8.2,2.6,16.7,4.5,25.2,6.1
				c17,3.2,34.1,5.3,51.3,7c34.4,3.2,69,4.5,103.6,4.4c34.6,0.1,69.2-1.3,103.6-4.4c17.2-1.6,34.4-3.7,51.3-7
				c8.5-1.6,16.9-3.5,25.2-6.1c4.1-1.3,8.2-2.8,12-4.9c1.9-1,3.7-2.2,5.3-3.6C399.2,152.3,400.6,150.5,400.7,148.2z"/>
		</g>
	</g>
	<path class="st15" d="M349.4,118.7c0,9-66.7,16.4-149.1,16.4c-82.3,0-149.1-7.3-149.1-16.4c0-9,97.4-19.4,149.1-19.4
		C250.8,99.3,349.4,109.7,349.4,118.7z"/>
</g>
<g>
	<path class="st16" d="M224,160.5c0,5.2-7.5,9.4-16.8,9.4c-9.3,0-16.8-4.2-16.8-9.4c0-5.2,7.5-9.4,16.8-9.4
		C216.5,151.1,224,155.3,224,160.5z"/>
	<path class="st17" d="M221.8,160.5c0,4.5-6.6,8.2-14.7,8.2c-8.1,0-14.7-3.7-14.7-8.2c0-4.5,6.6-8.2,14.7-8.2
		C215.3,152.3,221.8,156,221.8,160.5z"/>
	<path class="st18" d="M211.2,158.2c0,2-3.5,0.8-7.8,0.8c-4.3,0-7.8,1.2-7.8-0.8c0-2,3.5-3.7,7.8-3.7
		C207.7,154.6,211.2,156.2,211.2,158.2z"/>
	<path class="st19" d="M222.5,156.7c0.7,1,1.1,2.1,1.1,3.3c0,5.2-7.5,9.4-16.8,9.4c-6.8,0-12.7-2.3-15.3-5.5
		c2.4,3.6,8.5,6.2,15.8,6.2c9.3,0,16.8-4.2,16.8-9.4C224,159.1,223.5,157.8,222.5,156.7z"/>
	<path class="st20" d="M219.5,156.1c0.1,0.4,0.2,0.8,0.2,1.2c0,4.7-6.7,8.4-15.1,8.4c-4.7,0-8.9-1.2-11.6-3.1
		c1.6,3.5,7.4,6.2,14.2,6.2c8.1,0,14.7-3.7,14.7-8.2C221.8,158.9,221,157.4,219.5,156.1z"/>
</g>
<g>
	<path class="st16" d="M319.8,152c0.4,5.2-6.8,10-16.1,10.7c-9.3,0.7-17.1-2.9-17.5-8.1c-0.4-5.2,6.8-10,16.1-10.7
		C311.5,143.2,319.4,146.8,319.8,152z"/>
	<path class="st17" d="M317.6,152.1c0.3,4.5-5.9,8.7-14,9.3c-8.1,0.6-14.9-2.6-15.3-7.1c-0.3-4.5,5.9-8.7,14-9.3
		C310.5,144.4,317.3,147.6,317.6,152.1z"/>
	<path class="st18" d="M306.9,150.6c0.2,2-3.4,1.1-7.7,1.4c-4.3,0.3-7.7,1.8-7.8-0.3c-0.2-2,3.2-3.9,7.5-4.2
		C303.1,147.2,306.7,148.6,306.9,150.6z"/>
	<path class="st19" d="M318,148.2c0.7,1,1.2,2,1.3,3.2c0.4,5.2-6.8,10-16.1,10.7c-6.8,0.5-12.8-1.3-15.7-4.4c2.6,3.4,9,5.5,16.2,5
		c9.3-0.7,16.5-5.5,16.1-10.7C319.7,150.6,319,149.3,318,148.2z"/>
	<path class="st20" d="M314.9,147.9c0.1,0.4,0.2,0.8,0.2,1.2c0.4,4.6-6.1,8.9-14.4,9.5c-4.7,0.3-8.9-0.5-11.8-2.2
		c1.9,3.4,7.8,5.6,14.6,5.1c8.1-0.6,14.4-4.8,14-9.3C317.5,150.5,316.5,149,314.9,147.9z"/>
</g>
<g>
	<path class="st16" d="M386.5,137.6c0.8,5.2-5.4,10.3-13.9,11.6c-8.4,1.3-15.9-1.9-16.7-7c-0.8-5.1,5.4-10.3,13.9-11.6
		C378.3,129.3,385.8,132.4,386.5,137.6z"/>
	<path class="st17" d="M384.6,137.9c0.7,4.5-4.7,9-12.1,10.1c-7.3,1.1-13.9-1.6-14.5-6.1c-0.7-4.5,4.7-9,12.1-10.1
		C377.4,130.7,383.9,133.4,384.6,137.9z"/>
	<path class="st18" d="M374.6,137.1c0.3,2-3,1.3-6.9,1.9c-3.9,0.6-6.9,2.2-7.2,0.2c-0.3-2,2.6-4.1,6.5-4.7
		C370.9,133.9,374.3,135,374.6,137.1z"/>
	<path class="st19" d="M384.6,134c0.8,0.9,1.3,2,1.4,3.1c0.8,5.2-5.4,10.3-13.9,11.6c-6.2,0.9-11.8-0.5-14.7-3.4
		c2.7,3.2,8.6,4.9,15.2,4c8.4-1.3,14.6-6.5,13.9-11.6C386.3,136.2,385.6,135,384.6,134z"/>
	<path class="st20" d="M381.8,133.8c0.1,0.4,0.3,0.7,0.3,1.1c0.7,4.6-4.9,9.2-12.4,10.4c-4.2,0.6-8.2,0-11-1.5
		c2,3.3,7.6,5.1,13.8,4.2c7.4-1.1,12.8-5.6,12.1-10.1C384.3,136.3,383.3,134.9,381.8,133.8z"/>
</g>
<g>
	<path class="st16" d="M129.9,154.8c-0.5,5.2-8.4,8.7-17.6,7.8c-9.3-0.9-16.4-5.7-15.9-10.9c0.5-5.2,8.4-8.7,17.6-7.8
		C123.2,144.7,130.3,149.6,129.9,154.8z"/>
	<path class="st17" d="M127.7,154.6c-0.4,4.5-7.3,7.6-15.4,6.8c-8.1-0.7-14.3-5-13.9-9.5c0.4-4.5,7.3-7.6,15.4-6.8
		C121.9,145.8,128.1,150.1,127.7,154.6z"/>
	<path class="st18" d="M117.4,151.3c-0.2,2-3.5,0.5-7.8,0.1c-4.3-0.4-7.8,0.5-7.7-1.6c0.2-2,3.8-3.3,8.1-2.9
		C114.2,147.4,117.5,149.3,117.4,151.3z"/>
	<path class="st19" d="M128.7,150.8c0.6,1.1,0.9,2.2,0.8,3.4c-0.5,5.2-8.4,8.7-17.6,7.8c-6.8-0.6-12.4-3.4-14.7-6.9
		c2,3.8,7.9,6.9,15.1,7.6c9.3,0.9,17.2-2.6,17.6-7.8C130,153.4,129.6,152.1,128.7,150.8z"/>
	<path class="st20" d="M125.8,149.9c0.1,0.4,0.1,0.8,0.1,1.2c-0.4,4.6-7.5,7.8-15.8,7c-4.7-0.4-8.7-2-11.3-4.1
		c1.3,3.7,6.8,6.8,13.6,7.5c8.1,0.7,15-2.3,15.4-6.8C127.9,153,127.1,151.4,125.8,149.9z"/>
</g>
<g>
	<path class="st16" d="M58,143.5c-1.3,5.1-8.8,7.5-16.9,5.5c-8.1-2-13.6-7.7-12.3-12.8c1.3-5,8.8-7.5,16.9-5.5
		C53.7,132.7,59.2,138.5,58,143.5z"/>
	<path class="st17" d="M56.1,143.1c-1.1,4.4-7.7,6.6-14.7,4.8c-7-1.8-11.9-6.8-10.8-11.2c1.1-4.4,7.7-6.6,14.7-4.8
		C52.4,133.7,57.2,138.6,56.1,143.1z"/>
	<path class="st18" d="M47.5,138.5c-0.5,2-3.2,0.1-6.9-0.9c-3.7-0.9-7-0.5-6.5-2.5c0.5-2,3.9-2.8,7.6-1.9
		C45.3,134.2,47.9,136.6,47.5,138.5z"/>
	<path class="st19" d="M57.6,139.4c0.3,1.1,0.4,2.3,0.1,3.4c-1.3,5-8.8,7.5-16.9,5.5c-5.9-1.5-10.4-4.9-12-8.7
		c1.2,4,5.9,7.8,12.2,9.4c8.1,2,15.6-0.5,16.9-5.5C58.3,142.2,58.2,140.8,57.6,139.4z"/>
	<path class="st20" d="M55.1,138.2c0,0.4,0,0.8-0.1,1.2c-1.1,4.5-7.9,6.7-15.1,4.9c-4.1-1-7.4-3.1-9.3-5.5c0.5,3.8,4.9,7.6,10.8,9.1
		c7,1.8,13.6-0.4,14.7-4.8C56.5,141.5,56.1,139.8,55.1,138.2z"/>
</g>
<path class="st21" d="M237,35.7c0,3.6-16.2,1.4-36.3,1.4c-20,0-36.3,2.2-36.3-1.4c0-3.6,16.2-11.7,36.3-11.7
	C220.7,24,237,32.1,237,35.7z"/>
<path class="st22" d="M173.8,105.4c0.1,0.4,0.1,0.7,0.2,1.1c0.1,2-0.2,3.3-0.4,4c1.6,1.8,5,5.3,6.8,5.8c2.5,0.7,6.3,0.2,7.3-0.3
	c0.5-0.2,1-0.7,1.5-1.2C183.3,112.9,178.2,109.8,173.8,105.4z"/>
<path class="st23" d="M203,114.8c15.9-5.8,29.9-20.7,30.6-42.1c1-30.3-16-42.3-33.8-45.4c-6.6,0.2-13,1.9-18.7,4.9
	c-11.3,7.6-19.2,21-17.3,39.8c1.6,15.9,7.9,29.6,18.4,37.9c2.7,1.6,5.5,2.9,8.6,3.8c2.6,0.8,5.3,1.3,8.2,1.6
	c0.6,0.1,1.3,0.1,1.9,0.1C201.6,115.2,202.3,115,203,114.8C203,114.8,203,114.8,203,114.8z M212.1,80.2c4.1-5.8,10.7-8.2,14.9-5.3
	c4.2,2.9,4.3,10,0.2,15.8c-4,5.8-12.1,9.7-16.3,6.8S208.1,86,212.1,80.2z M177.4,45.7c1.2-1.2,2.9-1.6,3.6-0.9
	c0.7,0.7-0.1,1.9-1.3,3.1c-1.2,1.2-2.5,1.8-3.2,1.1C175.9,48.3,176.3,46.8,177.4,45.7z M186.9,97.4c-4.2,2.9-12.3-0.9-16.3-6.8
	s-4-12.9,0.2-15.8s10.8-0.5,14.9,5.3C189.8,86,191.1,94.5,186.9,97.4z M188.9,40.8c-2.7,2.2-5.5,3.3-6.7,1.8c-1.2-1.5,0-4.6,2.7-6.8
	c2.7-2.2,6.9-2.9,8.2-1.4C194.2,36,191.6,38.6,188.9,40.8z M200.6,105.4c-0.4,0.4-1,0.8-2,0.8c0,0-0.1,0-0.1,0c-1.1,0-1.7-0.5-2-0.9
	c-0.8-0.9-0.8-2.2-0.7-2.4c0-0.5,0.4-0.8,0.9-0.8c0.5,0,0.8,0.4,0.8,0.9c0,0.2,0,0.8,0.3,1.2c0.2,0.2,0.5,0.3,0.9,0.3
	c0.4,0,0.6-0.1,0.8-0.3c0.4-0.4,0.4-1,0.4-1.3c0-0.5,0.3-0.8,0.8-0.9c0.5,0,0.8,0.3,0.9,0.8C201.5,103.1,201.5,104.5,200.6,105.4z"
	/>
<path class="st23" d="M244.3,72.6c0.5-14.4-3.1-25.6-10.6-33.4c-10.1-10.4-24.8-12-32.7-12c-0.4,0-0.8,0-1.2,0
	c17.9,3.1,34.9,15,33.8,45.4c-0.7,21.4-14.7,36.3-30.6,42.1c0,0,0,0,0,0c-0.7,0.2-1.4,0.4-2.1,0.6c3.3,0.1,7-0.5,10.7-1.7l0.1,0
	C226.9,108.9,243.6,94,244.3,72.6z"/>
<path class="st24" d="M244.3,72.6c0.5-14.4-3.1-25.6-10.6-33.4c-10.1-10.4-24.8-12-32.7-12c-0.4,0-0.8,0-1.2,0
	c17.9,3.1,34.9,15,33.8,45.4c-0.7,21.4-14.7,36.3-30.6,42.1c0,0,0,0,0,0c-0.7,0.2-1.4,0.4-2.1,0.6c3.3,0.1,7-0.5,10.7-1.7l0.1,0
	C226.9,108.9,243.6,94,244.3,72.6z"/>
<path class="st23" d="M211,115.6c-0.1,0-0.2,0-0.3,0.1c-0.2,0.1-0.4,0.1-0.7,0.2c-0.5,0.1-0.9,0.2-1.4,0.3c-0.3,0.1-0.6,0.1-0.9,0.2
	c-0.7,0.1-1.3,0.2-2,0.3c-0.4,0.1-0.7,0.1-1.1,0.1c-0.4,0-0.7,0.1-1.1,0.1c-0.6,0-1.3,0.1-1.9,0.1c-0.1,0-0.2,0-0.3,0
	c-0.9,0-1.8,0-2.6-0.1c-2.1-0.2-4.1-0.5-6-1c0,0,0,0,0,0c-0.5-0.1-1.1-0.3-1.6-0.4c-0.1,0-0.2-0.1-0.3-0.1c-0.5,0.6-1.5,1.6-2.5,2.1
	c-1.4,0.7-5.6,1.2-8.5,0.4c-1-0.3-2.1-1.1-3.3-2c-2.4-1.9-4.8-4.8-4.8-4.8s0,0,0,0l-0.2-0.3l0.3-0.5c0,0,0.6-1.2,0.5-3.7
	c0-0.4-0.1-0.7-0.1-1c-0.1-0.3-0.2-0.5-0.3-0.8l-0.1,1.2c0,0.4-0.4,0.7-0.8,0.8c-0.4,0-0.8-0.2-0.9-0.6c0-0.1-0.1-0.2-0.2-0.4
	c-0.1-0.1-0.3-0.2-0.4-0.3c-0.2-0.1-0.4-0.4-0.6-0.8c-0.5-0.6-1-1.6-1.5-3c0,1.2,0.2,2.9,0.6,4.7l0.3,1.1l-1.1-0.1
	c-1.4-0.1-3-1.4-4.2-2.7c0.1,0.4,0.2,0.7,0.4,0.8c0.8,0.5,1.7,1.9,3,3.7c0.5,0.7,1.2,1.8,1.4,2c0.3,0.2,1.4,0.4,2,0.4h0.5l0.2,0.4
	c1.7,3,7.1,8.5,9.8,10.4c1.1,0.2,2.4,0.3,3.9,0.2c1.6-0.1,3.1-0.3,4.2-0.6c0,0-0.1,0.2-0.2,0.6l0.2,0l-0.2,1.1c0,0-0.5,3.5-0.6,11.3
	h25.7c-0.1-7.6-0.2-13.4-0.2-13.4c0.6,0.4,1.8,1.3,2.8,2.5l0.1,0c1.8,1.2,4.2,6.4,6,10.9h1.7c-2.7-8.2-8.2-15.1-9.9-17.3
	C212.9,116.6,211.9,115.9,211,115.6z"/>
<path class="st23" d="M171.9,104.8l0,0.1c0.1,0.2,0.2,0.5,0.3,0.8C172.1,105.3,172,105,171.9,104.8z"/>
<path class="st24" d="M171.9,104.8l0,0.1c0.1,0.2,0.2,0.5,0.3,0.8C172.1,105.3,172,105,171.9,104.8z"/>
<path d="M170.8,74.9c-4.2,2.9-4.3,10-0.2,15.8s12.1,9.7,16.3,6.8s2.8-11.4-1.2-17.2C181.7,74.4,175,72,170.8,74.9z M180.5,87.8
	c-1.9,1.3-5.4-0.1-7.1-2.5c-1.7-2.4-1.5-5.4,0.4-6.7c1.9-1.3,4.8-0.5,6.5,2C182,82.8,182.4,86.4,180.5,87.8z M183.1,91.9
	c-0.9,0-1.6-0.7-1.6-1.6c0-0.9,0.7-1.6,1.6-1.6s1.6,0.7,1.6,1.6C184.8,91.2,184,91.9,183.1,91.9z"/>
<path class="st25" d="M180.3,80.4c-1.7-2.4-4.6-3.3-6.5-2c-1.9,1.3-2.1,4.3-0.4,6.7c1.7,2.4,5.2,3.9,7.1,2.5
	C182.4,86.4,182,82.8,180.3,80.4z"/>
<path d="M210.9,97.4c4.2,2.9,12.3-0.9,16.3-6.8c4.1-5.8,4-12.9-0.2-15.8c-4.2-2.9-10.8-0.5-14.9,5.3C208.1,86,206.7,94.5,210.9,97.4
	z M218.6,79.5c1.7-2.4,4.6-3.3,6.5-2c1.9,1.3,2.1,4.3,0.4,6.7c-1.7,2.4-5.2,3.9-7.1,2.5C216.6,85.5,217,81.9,218.6,79.5z
	 M215.6,87.3c0.9,0,1.6,0.7,1.6,1.6s-0.7,1.6-1.6,1.6c-0.9,0-1.6-0.7-1.6-1.6S214.7,87.3,215.6,87.3z"/>
<path class="st25" d="M218.5,86.8c1.9,1.3,5.4-0.1,7.1-2.5c1.7-2.4,1.5-5.4-0.4-6.7c-1.9-1.3-4.8-0.5-6.5,2
	C217,81.9,216.6,85.5,218.5,86.8z"/>
<path class="st26" d="M200.6,102.1c-0.5,0-0.8,0.4-0.8,0.9c0,0.2,0,0.9-0.4,1.3c-0.2,0.2-0.5,0.3-0.8,0.3c-0.4,0-0.7-0.1-0.9-0.3
	c-0.3-0.4-0.4-1-0.3-1.2c0-0.5-0.3-0.8-0.8-0.9c-0.5,0-0.9,0.3-0.9,0.8c0,0.1-0.1,1.5,0.7,2.4c0.3,0.4,1,0.8,2,0.9c0,0,0.1,0,0.1,0
	c1,0,1.6-0.4,2-0.8c0.9-0.9,0.9-2.3,0.9-2.5C201.5,102.5,201.1,102.1,200.6,102.1z"/>
<path class="st25" d="M183.1,88.6c-0.9,0-1.6,0.7-1.6,1.6c0,0.9,0.7,1.6,1.6,1.6s1.6-0.7,1.6-1.6C184.8,89.4,184,88.6,183.1,88.6z"
	/>
<path class="st25" d="M215.6,90.6c0.9,0,1.6-0.7,1.6-1.6s-0.7-1.6-1.6-1.6c-0.9,0-1.6,0.7-1.6,1.6S214.7,90.6,215.6,90.6z"/>
<path class="st23" d="M163.8,72c-1.9-18.7,6-32.2,17.3-39.8c-4.2,2.2-7.9,5.1-11,8.5c-7.3,8.1-10.5,18.9-9.2,31
	c1.9,17.7,9.5,31.1,21.3,38.2C171.7,101.6,165.5,87.9,163.8,72z"/>
<path class="st27" d="M163.8,72c-1.9-18.7,6-32.2,17.3-39.8c-4.2,2.2-7.9,5.1-11,8.5c-7.3,8.1-10.5,18.9-9.2,31
	c1.9,17.7,9.5,31.1,21.3,38.2C171.7,101.6,165.5,87.9,163.8,72z"/>
<path class="st26" d="M172,102.2c0.5,0.4,1.5,1.4,1.9,3.2c4.3,4.3,9.5,7.5,15.3,9.5c0.3-0.4,0.6-0.7,0.8-0.9l0.3-0.5l0.6,0.2
	c2.6,0.8,5.3,1.3,8.2,1.6c3.8,0.4,8.2-0.2,12.6-1.6l0.1,0l0.2,0c0.3,0,1.7-0.2,3.3,0.6c14.9-5.9,30.1-20.7,30.8-41.6
	c0.5-14.8-3.2-26.5-11.1-34.6c-7.8-8.1-19.8-12.5-33.9-12.5c-12.3,0-24.3,5.2-32.2,14c-7.6,8.5-11,19.7-9.6,32.3
	c1.1,10.5,4.4,20,9.5,27.4c0.7,1,1.4,1.9,2.1,2.8c0,0,0.1-0.1,0.1-0.1C171.3,101.9,171.7,101.9,172,102.2z M211.7,113.7L211.7,113.7
	c-3.8,1.2-7.5,1.8-10.8,1.7c-0.7,0-1.3,0-1.9-0.1c-2.8-0.3-5.6-0.8-8.2-1.6c-3.1-0.9-5.9-2.2-8.6-3.8c-11.8-7.1-19.4-20.5-21.3-38.2
	c-1.3-12.1,1.9-22.8,9.2-31c3.1-3.4,6.9-6.3,11-8.5c5.7-3,12.1-4.7,18.7-4.9c0.4,0,0.8,0,1.2,0c7.9,0,22.6,1.6,32.7,12
	c7.5,7.8,11.1,19,10.6,33.4C243.6,94,226.9,108.9,211.7,113.7z"/>
<path class="st23" d="M169.5,105.7c0.2,0.1,0.3,0.2,0.4,0.3c-0.1-0.2-0.3-0.5-0.6-0.6c-0.2-0.1-0.3-0.2-0.5-0.5
	C169.1,105.3,169.3,105.6,169.5,105.7z"/>
<path class="st24" d="M169.5,105.7c0.2,0.1,0.3,0.2,0.4,0.3c-0.1-0.2-0.3-0.5-0.6-0.6c-0.2-0.1-0.3-0.2-0.5-0.5
	C169.1,105.3,169.3,105.6,169.5,105.7z"/>
<path class="st26" d="M187.7,135.1c0.1-7.8,0.6-11.3,0.6-11.3l0.2-1.1l-0.2,0l-0.9,0.2c-1.1,0.2-4.3,0.7-5.9,0.3
	c-0.3-0.1-0.7-0.3-1.2-0.7c-2.7-1.9-8.1-7.4-9.8-10.4l-0.2-0.4h-0.5c-0.7,0-1.7-0.1-2-0.4c-0.2-0.2-0.9-1.2-1.4-2
	c-1.2-1.8-2.2-3.2-3-3.7c-0.2-0.1-0.3-0.4-0.4-0.8c1.2,1.3,2.8,2.7,4.2,2.7l1.1,0.1l-0.3-1.1c-0.4-1.8-0.6-3.5-0.6-4.7
	c0.5,1.5,1,2.5,1.5,3c0.2,0.2,0.3,0.4,0.5,0.5c0.3,0.1,0.4,0.4,0.6,0.6c0.1,0.1,0.1,0.3,0.2,0.4c0.1,0.4,0.5,0.7,0.9,0.6
	c0.4-0.1,0.7-0.4,0.8-0.8l0.1-1.2l0-0.1c0.1,0.3,0.2,0.6,0.3,0.9c0.1,0.3,0.1,0.6,0.1,1c0.1,2.5-0.5,3.7-0.5,3.7l-0.3,0.5l0.2,0.3
	l0.2,0.2c0.3,0.4,2.5,2.8,4.7,4.6c1.2,1,2.3,1.8,3.3,2c2.8,0.8,7.1,0.3,8.5-0.4c1-0.5,2-1.5,2.5-2.1c0.1,0,0.2,0.1,0.3,0.1
	c0.5,0.1,1.1,0.3,1.6,0.4c0,0,0,0,0,0c1.9,0.5,4,0.8,6,1c1,0.1,1.9,0.1,3,0.1c0.6,0,1.2,0,1.9-0.1c0.3,0,0.7-0.1,1.1-0.1
	c0.4,0,0.7-0.1,1.1-0.1c0.7-0.1,1.3-0.2,2-0.3c0.3-0.1,0.6-0.1,0.9-0.2c0.5-0.1,0.9-0.2,1.4-0.3c0.2-0.1,0.4-0.1,0.7-0.2
	c0.4-0.1,0.8-0.2,1.3-0.4h0.1l0.1,0c0,0,0,0,0,0c0.6-0.1,2.5,0,4.3,2.2c2.4,3,7.1,9.7,9.2,17.6h1.7c-2.1-8.4-7.1-15.5-9.6-18.6
	c-0.9-1.1-1.9-1.8-2.7-2.2c-1.6-0.8-2.9-0.6-3.3-0.6l-0.2,0l-0.1,0c-4.4,1.4-8.8,1.9-12.6,1.6c-2.8-0.3-5.6-0.8-8.2-1.6l-0.6-0.2
	l-0.3,0.5c-0.1,0.2-0.4,0.5-0.8,0.9c-0.4,0.5-1,1-1.5,1.2c-1,0.5-4.8,0.9-7.3,0.3c-1.8-0.5-5.3-4.1-6.8-5.8c0.2-0.7,0.5-2,0.4-4
	c0-0.4-0.1-0.8-0.2-1.1c-0.4-1.8-1.4-2.8-1.9-3.2c-0.3-0.2-0.7-0.3-1-0.1c0,0-0.1,0-0.1,0.1c-0.3,0.2-0.4,0.4-0.5,0.7l-0.1,1.1
	c0,0-0.1-0.1-0.1-0.1c-0.4-0.4-1.2-2.4-1.9-4.7c-0.1-0.3-0.3-0.5-0.5-0.6c-0.2-0.1-0.5-0.1-0.8,0c-1.7,0.8-1.4,4.3-0.9,6.8
	c-1-0.7-2.3-2.1-3.3-3.4c-0.2-0.3-0.6-0.4-0.9-0.3s-0.6,0.4-0.6,0.8c-0.1,1.3-0.1,3.6,1.3,4.5c0.6,0.4,1.7,2.1,2.5,3.3
	c0.9,1.4,1.4,2.1,1.8,2.4c0.7,0.5,1.8,0.6,2.5,0.7c2.3,3.7,9.4,10.9,11.7,11.5c1.6,0.4,4,0.1,5.5-0.1c-0.2,1.6-0.4,5-0.5,10.4H187.7
	z"/>
<path class="st28" d="M184.8,35.9c-2.7,2.2-3.9,5.2-2.7,6.8c1.2,1.5,4,0.4,6.7-1.8c2.7-2.2,5.4-4.8,4.1-6.3
	C191.8,33,187.6,33.7,184.8,35.9z"/>
<path class="st28" d="M179.7,47.8c1.2-1.2,2-2.5,1.3-3.1c-0.7-0.7-2.4-0.2-3.6,0.9c-1.2,1.2-1.6,2.6-0.9,3.3
	C177.2,49.6,178.6,49,179.7,47.8z"/>
</svg>
