<?xml version="1.0" encoding="utf-8"?>
<!-- Generator: Adobe Illustrator 27.5.0, SVG Export Plug-In . SVG Version: 6.00 Build 0)  -->
<svg version="1.1" id="Layer_1" xmlns="http://www.w3.org/2000/svg" xmlns:xlink="http://www.w3.org/1999/xlink" x="0px" y="0px"
	 viewBox="0 0 828.3 1411.7" style="enable-background:new 0 0 828.3 1411.7;" xml:space="preserve">
<style type="text/css">
	.st0{fill:#FFFFFF;stroke:#FFFFFF;stroke-width:10;stroke-miterlimit:10;}
	.st1{fill:#FFFFFF;}
	.st2{fill:#8DB831;}
	.st3{opacity:0.81;fill:#5D7B1D;}
	.st4{opacity:0.31;fill:#F0F1F1;}
	.st5{fill:#272347;}
	.st6{opacity:0.85;fill:#AADB3E;}
	.st7{fill:#F0F1F1;}
</style>
<path class="st0" d="M481.1,1406.7c-8,0-14.5-0.5-19.9-1.4c-12.8-2.2-22.8-12.9-24.3-25.9c-0.7-6.6-2.3-21.4,9-30
	c4-3.6,16.2-16.6,21.7-23.4c-1.2-10.5-5.8-35.3-10.9-52.1c-3.7-12.4-14.5-42.5-24-68.6c-13,0.3-24.5,0.4-33.9,0.4
	c-2.8,0-5.4,0-7.9,0c-4.1,58.7-6.5,106.6-5.8,116.1c0.8,3.4,4.3,19.7,4.6,29.1c0.2,7.7-2.8,14.9-8.2,20.1
	c-19.4,18.5-27.7,22-36.2,22c-0.2,0-0.4,0-0.6,0c-8.6-0.1-50.5-1.3-70.5-11.1c-9.7-4.8-15.9-14.4-16.3-25.2
	c-0.2-5.6,0.2-9.3,1.3-12.7c2-6.3,3.5-7.6,21.9-23.5c3.8-3.3,9.2-8,13.4-11.8c-0.9-3.5-2-7.7-3.1-11.8
	c-12.5-47-38.5-144.7-39.8-230.2c-1-64,0.9-106.9,2.6-132.2c-5.2,0.4-10.7,0.7-16.1,0.7c-8.4,0-15.4-0.7-21.3-2.1
	c-26.7-6.3-87-69.8-111.4-104.6c-7.8-1.1-16.6-3.4-23.2-8.1c-5.5-4-10.1-10.5-19.9-24.9c-5.4-8-15.5-22.8-19.5-26.1
	c-16.8-11.8-18.7-35.7-17.3-53.8c0-0.2,0-0.3,0-0.5c1.1-11.3,10.6-19.9,22-19.9c6.9,0,13.5,3.3,17.6,8.8c0.4,0.6,0.9,1.1,1.3,1.7
	c0.7-12.2,3.9-25.7,14.4-33.7C42.2,607,17,527.6,7.7,440.5C-4.9,322,26.5,216.9,98.7,136.7C172.8,54.2,285.8,5,401,5
	c131.4,0,244.2,41.8,317.5,117.6c74,76.5,109.1,185.7,104.4,324.3c-6.3,184.5-133.9,319.3-265.4,380c2.5,2.6,5.1,5.4,7.6,8.5
	c30.1,38.2,99.2,137.9,98.5,246.6c6.9,18.7,27,84.2-11.8,121.8c-4.2,4.1-9.7,6.3-15.5,6.3c-4.2,0-8.1-1.2-11.5-3.2
	c-4.1,5.1-10.4,8.1-17,8.1c-11.6,0-21.2-9.1-21.8-20.6l-1.3-19.3c-2,0.6-4.1,0.9-6.2,0.9c-7.1,0-13.7-3.2-18-8.8
	c-1.2-1.5-2.2-3.2-3-4.9c0,70.3-0.9,135.5-3.7,163c2.1,9,6.6,30.8,6.7,46.9c0,15.3-11.3,28.2-26.4,30.2
	C519.4,1404.4,498.4,1406.7,481.1,1406.7z M556.4,1002.6c0.5,40.3,1,90.6,1.1,139.9c9.4-38.3,15.1-47.1,17-50.1
	c3.4-5.4,7.7-11.1,11.2-15.8C576.7,1051.6,566.3,1025.4,556.4,1002.6z M167.4,786.5c20,21.6,41.9,40.6,49.9,42.7
	c6.1,1.7,14.6,2.6,24,2.6c5.9,0,11.4-0.4,16.2-0.9c-31.8-14-61.5-32.5-88.3-54.9C168.6,780,168,783.5,167.4,786.5z"/>
<path class="st1" d="M401,26.7C210.8,26.7,0.9,171.1,29.3,438.2c19.8,186.4,114.2,338.5,276.9,387.7c0,0-11.9,15.7-23,21.3
	c-11,5.6-48.2,9.4-71.6,3c-23.4-6.4-68.6-58.4-68.6-58.4s6.4-11.9,5.1-37.5c-1-20-11.2-30.7-15.5-34.3c-0.8-0.7-2.1-0.2-2.1,0.9
	l-2.4,30.4c0,0-2.1-11.1-10.6-15.3c-7.8-3.9-19-41.1-20.7-47c-0.1-0.4-0.6-0.6-1-0.4c-15.7,7.4-1.3,67-1.3,67
	c-16.8-0.8-42.2-33.1-46.3-38.5c-0.2-0.3-0.6-0.1-0.7,0.2c-0.4,4.9-1.6,27.6,8.2,34.4c11,7.7,33.2,46.5,39.6,51.2
	c6.4,4.7,22.7,4.8,22.7,4.8c18.2,31.8,85,99.8,104,104.3c19,4.5,56.5-2.6,56.5-2.6s-6.8,46.9-5.1,156.9
	c1.7,110,46.9,245.8,44.9,249.5c-2,3.7-37.8,33.3-38.4,35c-0.3,0.8-0.3,3-0.2,5c0.1,2.8,1.6,5.3,4.1,6.5c16.7,8.2,61.5,8.9,61.5,8.9
	c4,0.2,16.9-11.7,21.3-15.9c1.1-1,1.6-2.4,1.6-3.9c-0.2-7.9-4.1-25.1-4.1-25.1c-2.8-7.4,4.9-116.9,6.5-139.5c0.1-2.1,2-3.7,4.1-3.5
	c15.2,1.3,58.1,0.2,69.9-0.1c1.9-0.1,3.5,1.1,4.2,2.8c4.7,12.6,23.2,62.9,28.8,81.5c6.4,21.3,13.2,58.8,11.9,64.4
	c-1.3,5.5-27.7,32.8-30.3,34.5c-1.5,1-1.2,6.2-0.8,10.4c0.4,3.5,3.1,6.4,6.6,7c16.7,3,51.3-0.9,66.1-2.8c4.3-0.6,7.6-4.3,7.6-8.7
	c-0.1-17.6-7-45.7-7-45.7c7.9-60.2,1.7-406.1,1.7-406.1c27.6,19,76.7,160.3,76.7,160.3s-10.6,12.8-17.5,23.4
	c-5.7,8.8-13,38.5-15.4,48.6c-0.3,1.1,1.1,1.9,2,1.2l24.5-19.5l3.8,58.7c0,0.2,0.2,0.2,0.3,0.1l24.9-45.1l2.9,39.9
	c0,0.4,0.5,0.6,0.9,0.3c33.7-32.7,5.2-102.4,5.2-102.4c2.6-108.3-71.6-208.9-93.8-237c-21.4-27.2-46.2-23.2-47.9-22.9
	c143.7-45.3,294.5-185.5,301.1-379.8C812.4,118.2,591.3,26.7,401,26.7z"/>
<g>
	<path class="st2" d="M801.2,444.8c-6.6,194.3-157.4,334.5-301.1,379.8c-0.1,0-0.1,0-0.1,0c-41.2,13-81.8,18.2-118.3,14.6
		c-26.6-2.6-51.8-7.6-75.5-14.7C143.5,775.3,49.1,623.2,29.3,436.8C0.9,169.7,210.8,25.3,401,25.3
		C591.3,25.3,812.4,116.8,801.2,444.8z"/>
	<path class="st3" d="M401,25.3c-15.5,0-31.1,1-46.7,2.9c174.5,17.7,352.9,121.2,342.8,416.6c-6.6,194.3-133.6,329.8-277.7,382.3
		c-0.1,0-0.1,0-0.1,0c-14.5,4.6-29,8.2-43.2,10.8c9.5,1.6,19.1,2.9,29,3.9c36.5,3.5,53.7-4.1,94.8-17.1c0,0,0,0,0.1,0
		c143.7-45.3,294.5-185.5,301.1-379.8C812.4,116.8,591.3,25.3,401,25.3z"/>
	<path class="st2" d="M636.6,1186.9c-0.3,0.3-0.8,0.1-0.9-0.3l-2.9-39.9l-24.9,45.1c-0.1,0.2-0.3,0.1-0.3-0.1l-3.8-58.7l-24.5,19.5
		c-0.9,0.8-2.3-0.1-2-1.2c2.4-10.1,9.8-39.8,15.4-48.6c6.8-10.6,17.5-23.4,17.5-23.4S561,938.1,533.5,919.1c0,0,6.2,345.9-1.7,406.1
		c0,0,6.9,28.1,7,45.7c0,4.4-3.2,8.1-7.6,8.7c-14.8,1.9-49.4,5.8-66.1,2.8c-3.5-0.6-6.2-3.5-6.6-7c-0.4-4.2-0.7-9.4,0.8-10.4
		c2.6-1.7,29-29,30.3-34.5c1.3-5.6-5.5-43.1-11.9-64.4c-5.6-18.6-24.1-68.9-28.8-81.5c-0.6-1.7-2.3-2.9-4.2-2.8
		c-11.9,0.3-54.7,1.4-69.9,0.1c-2.1-0.2-4,1.4-4.1,3.5c-1.6,22.5-9.3,132.1-6.5,139.5c0,0,3.9,17.2,4.1,25.1c0,1.5-0.5,2.9-1.6,3.9
		c-4.4,4.2-17.3,16.2-21.3,15.9c0,0-44.7-0.7-61.5-8.9c-2.5-1.2-4-3.8-4.1-6.5c-0.1-2,0-4.2,0.2-5c0.5-1.7,36.4-31.3,38.4-35
		c2-3.7-43.2-139.6-44.9-249.5c-1.7-110,5.1-156.9,5.1-156.9s-37.5,7.1-56.5,2.6c-19.1-4.5-85.8-72.5-104-104.3
		c0,0-16.3-0.2-22.7-4.8c-6.4-4.7-28.6-43.5-39.6-51.2c-9.9-6.8-8.6-29.5-8.2-34.4c0-0.3,0.5-0.5,0.7-0.2
		c4.1,5.4,29.5,37.7,46.3,38.5c0,0-14.3-59.6,1.3-67.1c0.4-0.2,0.9,0,1,0.4c1.7,5.9,12.8,43,20.7,47c8.5,4.3,10.6,15.3,10.6,15.3
		l2.4-30.4c0.1-1.1,1.3-1.6,2.1-0.9c4.4,3.6,14.5,14.3,15.5,34.3c1.3,25.6-5.1,37.5-5.1,37.5s45.2,52,68.6,58.4
		c23.5,6.4,60.6,2.6,71.6-3c11.1-5.6,23-21.3,23-21.3c23.7,7.2,48.9,12.1,75.5,14.7c36.5,3.5,77.1-1.6,118.3-14.6c0,0,0,0,0.1,0
		c1.6-0.3,26.5-4.3,47.9,22.9c22.2,28.1,96.3,128.7,93.8,237C641.8,1084.5,670.3,1154.2,636.6,1186.9z"/>
	<path class="st4" d="M277.1,846.5c-11.1,5.6-48.2,9.4-71.6,3C182,843,136.8,791,136.8,791s0,0,0-0.1c0,0,0,0,0,0
		c-0.7,2.1-1.3,3.1-1.3,3.1s45.2,52,68.6,58.4c23.5,6.4,60.6,2.6,71.6-3c11.1-5.6,24.3-24.3,24.3-24.3S288.2,840.9,277.1,846.5z"/>
	<path class="st3" d="M141.3,756.5c1.3,25.6-1.1,37.1-1.1,37.1s6.4-11.9,5.1-37.5c-1-20-11.2-30.7-15.5-34.3
		c-0.8-0.7-2.1-0.2-2.1,0.9l-0.2,3C132.9,731.1,140.6,741.1,141.3,756.5z"/>
	<path class="st3" d="M197.3,894.4c11.2,8.8,20.7,15,26.3,16.2c19.8,4.4,58.3-2.2,60.1-2.5c1.2-10,2.9-14.7,2.9-14.7
		c-9.9,2.6-23.6,4.9-38,5.6C227.6,900,209.9,897.3,197.3,894.4z"/>
	<path class="st3" d="M512.1,890c0,0,7.7,386.5-0.3,446.7c0,0,6.6,26.7,7,44.4c4.8-0.5,9.2-1.1,12.5-1.5c4.3-0.6,7.6-4.3,7.6-8.7
		c-0.1-17.6-7-45.7-7-45.7c7.9-60.2,1.7-406.1,1.7-406.1c0,0,8.9,1.4,9,1.4C534.7,906.4,518.4,894.3,512.1,890z"/>
	<g>
		<path d="M262,513.1c36.8,52.9,48.9,130.2,11,156.5s-111.3-8.4-148-61.3S89.1,491.3,126.9,465C164.7,438.7,225.2,460.2,262,513.1z"
			/>
		<path class="st1" d="M212.9,515.2c15.2,21.8,18.9,54.5,1.6,66.6c-17.3,12-49-1.3-64.2-23.1c-15.2-21.8-13.4-49.2,3.8-61.2
			C171.5,485.5,197.8,493.4,212.9,515.2z"/>
		<path d="M501.6,513.1c-36.8,52.9-48.9,130.2-11,156.5s111.3-8.4,148-61.3c36.8-52.9,35.9-117.1-1.9-143.4
			C598.9,438.7,538.4,460.2,501.6,513.1z"/>
		<path class="st1" d="M560.9,506.7c-15.2,21.8-18.9,54.5-1.6,66.6c17.3,12,49-1.3,64.2-23.1s13.4-49.2-3.8-61.2
			C602.4,476.9,576.1,484.9,560.9,506.7z"/>
		<g>
			<path class="st5" d="M379.6,749c-0.3,0-0.6,0-0.9,0c-9.7-0.3-15.5-4.5-18.6-8c-7.7-8.5-6.9-20.4-6.8-21.7c0.3-4.1,4-7.2,8.1-6.9
				c4.1,0.3,7.2,3.9,6.9,8c-0.1,1.9,0.2,7.4,3.1,10.6c1.7,1.9,4.3,2.9,7.8,3c3.3,0.1,5.8-0.7,7.5-2.4c3.2-3.2,3.7-9.3,3.6-11.4
				c-0.2-4.1,3-7.6,7.1-7.8c4.1-0.2,7.6,3,7.8,7.1c0.1,1.4,0.5,14.1-7.8,22.5C394.2,745.2,388.6,749,379.6,749z"/>
		</g>
		<circle class="st1" cx="238.6" cy="604.7" r="14.8"/>
		<circle class="st1" cx="533.1" cy="592.6" r="14.8"/>
	</g>
	<path class="st6" d="M63.4,438.7C42.6,236.1,149.1,101.6,282.2,43.8C133.8,90.7,6.8,225.2,29.3,436.8
		C48,612.5,132.9,757.7,278.9,815C153.8,747.1,80.6,606.3,63.4,438.7z"/>
	<path class="st3" d="M642,1084.5c2.5-108.3-69.9-208.9-91.6-237c-20.9-27.2-45.2-23.2-46.8-22.9c-0.1,0-0.1,0-0.1,0
		c-8.3,2.7-16.5,5-24.7,7c9.2,0.7,24.7,4.8,38.8,23.1c21.6,28.1,106.8,134,104.3,242.3c0,0,9.6,23.9,10.9,50.3l0.3-0.6l2.9,39.9
		c0,0.4,0.5,0.6,0.8,0.3C669.9,1154.2,642,1084.5,642,1084.5z"/>
	<g>
		<path class="st5" d="M404.5,847.8c-8,0-15.9-0.4-23.5-1.1c-26.6-2.6-52.5-7.6-76.9-15c-80.5-24.3-146.5-73.2-196.1-145.3
			c-46.2-67.2-76-153.2-86.1-248.7c-12.2-114.4,18-215.7,87.4-292.8c71.5-79.5,180.6-127,291.8-127c127.5,0,236.7,40.2,307.3,113.3
			c71.2,73.7,105,179.3,100.4,313.9c-6.8,201.2-163.2,341.3-305.8,386.5l-1.1,0.5l-0.7,0C467.9,842.5,434.9,847.8,404.5,847.8z
			 M401,32.8c-107,0-212,45.6-280.7,122C53.9,228.7,25,325.9,36.7,436c20.9,196.5,119.9,335.4,271.7,381.3
			c23.5,7.1,48.4,11.9,74,14.4c34.8,3.4,74.5-1.5,114.8-14.2l0,0l0.6-0.2c137.9-43.5,289.3-178.7,295.9-372.9l0,0
			c4.4-130.4-27.9-232.4-96.2-303C606.1,46.9,472.5,32.8,401,32.8z"/>
	</g>
	<path class="st3" d="M350.2,1180.1c-1.6,23.2-9.3,136-6.5,143.6c0,0,3.9,17.7,4.1,25.8c0,1.5-0.5,2.9-1.6,4
		c-3.7,3.6-13.2,12.7-18.6,15.5c10.1,0.7,17.7,0.9,17.7,0.9c4,0.2,16.9-12.1,21.3-16.4c1.1-1.1,1.6-2.5,1.6-4
		c-0.2-8.2-4.1-25.8-4.1-25.8c-2.8-7.6,4.9-120.4,6.5-143.6c0.1-1.3,0.9-2.4,1.9-3.1c-7.4-0.1-13.9-0.2-18.2-0.6
		C352.2,1176.2,350.3,1177.9,350.2,1180.1z"/>
	<path class="st3" d="M125.7,752.9c-0.6-2.5-3.3-11-10.5-14.6c-7.8-3.9-19-41.1-20.7-47c-0.1-0.4-0.6-0.6-1-0.4
		c-0.8,0.4-1.5,0.9-2.2,1.6c0,0,0.1,0,0.1,0.1c1.7,5.9,15.6,47.8,23.4,51.7c8.5,4.3,11,10.7,11,10.7v-0.6
		C125.9,754,125.8,753.5,125.7,752.9z"/>
	<g>
		<path class="st5" d="M481.1,1391c-6.6,0-12.6-0.3-17.4-1.2c-6.8-1.2-11.9-6.6-12.7-13.5c-0.7-6.9-1-13.9,3.9-17.4
			c4.1-3.3,24.3-24.9,27.3-30.3c0.2-6.3-5.4-39.1-11.8-60.4c-5.4-17.9-23.4-66.9-27.8-78.9c-19.1,0.5-49.5,1-64.8,0.3
			c-4.4,60.8-8,124.8-6.6,133.1l0.2,0.7c0.4,1.8,4,18.1,4.3,26.5c0.1,3.6-1.3,7-3.8,9.5c-19,18.1-23.9,18.2-26.8,18
			c-5.5-0.1-46.9-1.1-64.5-9.7c-4.9-2.4-8.1-7.4-8.3-13c-0.2-4.6,0.2-6.5,0.6-7.6c0.8-2.5,0.9-2.7,17.7-17.3
			c6.2-5.4,15.9-13.8,19.9-17.7c-0.9-4-3-11.9-5.2-20.2c-12.4-46.4-38.1-143.1-39.4-226.8c-1.3-82.1,2.1-129,4-148
			c-13,1.9-35.6,4.2-49.7,0.9c-21.2-5-85.4-70.3-106.6-104.3c-6.2-0.4-16.8-1.7-22.8-6.1c-3.6-2.6-8.1-9.1-16.5-21.4
			c-7.5-11-17.8-26.1-23-29.7c-12-8.3-12.3-29.3-11.4-41.1c0.3-3.4,2.6-6.1,5.7-7c3.1-0.9,6.4,0.2,8.4,2.8
			c9.2,12,20.8,24.2,30.1,30.7c-4.2-22.4-7-54.3,8.4-61.6c2.2-1,4.7-1.1,6.9-0.1c2.2,1,3.8,2.8,4.5,5.1
			c5.9,20.5,13.6,39.4,17.1,42.6c0.4,0.2,0.8,0.4,1.2,0.7l0.8-9.8c0.2-3.2,2.2-6.1,5.3-7.4c3.1-1.3,6.6-0.8,9.1,1.3
			c5.1,4.3,17.1,16.7,18.2,39.7c0.9,18.3-1.8,30.2-3.9,36.4c14.2,15.9,45.8,48.3,61.9,52.7c22.6,6.2,57.5,2,66.3-2.4
			c7.8-3.9,17.4-15.1,20.4-19.1l3.1-4.1l5,1.5c23.5,7.1,48.4,11.9,74,14.4c34.8,3.4,74.5-1.5,114.8-14.2l0.5-0.2l1.5-0.3
			c4.7-0.7,31.8-3.1,54.6,25.7c29.4,37.3,97.2,135.1,95.4,240.3c4.2,10.9,27,75.7-7.5,109.1c-2.2,2.1-5.4,2.9-8.3,1.8
			c-2.9-1.1-5-3.7-5.2-6.8l-1.1-14.8l-12.8,23.3l-2.9,4.9l-5.7-1.4c-3.2-0.9-5.4-3.7-5.6-6.9l-2.9-44.3l-13.3,10.6
			c-2.8,2.3-6.9,2.6-10.1,0.6c-3.2-2-4.7-5.8-3.8-9.4c4.4-18.4,10.8-42.2,16.4-50.9c4.9-7.7,11.6-16.3,15.3-20.9
			c-15.9-45.2-41.6-108.9-60.5-138.2c1.2,75.5,4.7,329.9-1.9,385.1c1.4,6,6.8,29.9,6.9,46.1c0,8.1-6,15-14.1,16.1
			C519,1388.7,498.1,1391,481.1,1391z M465.6,1369.3c0,0.9,0,2.6,0.3,5.3c0,0.2,0.2,0.4,0.4,0.4c11,2,34.3,0.9,63.9-2.9
			c0.6-0.1,1-0.6,1-1.2c-0.1-16.5-6.7-43.7-6.8-43.9l-0.3-1.4l0.2-1.4c7.8-59,1.7-401.6,1.6-405l-0.3-14.6l12,8.3
			c28.7,19.8,74.4,149.3,79.6,164l1.4,4l-2.7,3.3c-0.1,0.1-10.4,12.6-16.9,22.7c-2.4,3.8-6,14.1-9.9,28.3l21.2-16.9l3.1,48
			l24.9-45.3l3.3,44.4c11.8-31.7-6.6-77.6-6.8-78.1l-0.6-1.4l0-1.6c2.4-101-63.7-196-92.2-232.2c-16.6-21.1-35-20.8-39.8-20.3
			l-0.5,0.2l-0.7,0c-42,13.1-83.6,18.2-120.2,14.6c-24.9-2.4-49.1-7-72.1-13.6c-4.6,5.5-13.4,14.9-22.4,19.4
			c-12.4,6.2-51.1,10.6-76.9,3.5c-24.9-6.8-67.5-55.2-72.3-60.7l-3.4-3.9l2.4-4.5c0,0,5.4-10.9,4.2-33.6c-0.3-7-2-12.7-4-17.1
			l-1,12.3c-0.3,3.7-3.2,6.7-6.9,7.2c-3.7,0.4-7.2-1.9-8.3-5.5c-0.6-2.1-2.5-7-6.4-9c-5.6-2.8-11.7-13.4-18.2-31.6
			c0.1,11.1,1.9,26.7,5.8,42.8l2.3,9.7l-9.9-0.5c-12.4-0.6-26.9-13-38-24.9c0.9,3.7,2.2,6.3,3.9,7.5c6.9,4.8,15.5,16.9,26.8,33.5
			c4.6,6.8,11,16.1,13,17.8c2.9,2.1,12.5,3.3,18.4,3.4l4.3,0l2.1,3.7c18.5,32.3,84.3,97.2,99.3,100.7c14.3,3.4,43.4-0.7,53.4-2.6
			l10.3-1.9l-1.5,10.4c-0.1,0.5-6.7,47.8-5,155.7c1.3,81.9,26.7,177.3,38.9,223.2c6.8,25.5,7,26.5,5.2,30
			c-1.5,2.8-5.6,6.6-24.6,23.1c-4.8,4.2-10.6,9.2-13.2,11.6c0,0.4,0,0.9,0,1.5c12.2,6.1,44.8,8,57.4,8.2c2-1,7.5-5,16-13.1
			c-0.4-6.2-2.9-18.3-3.9-22.7l0,0c-1.9-9.4,0.2-57,6.4-141.7c0.2-3,1.6-5.7,3.9-7.7c2.3-2,5.3-3,8.3-2.7c9.9,0.8,34.4,0.8,69.1-0.1
			c5-0.1,9.6,2.9,11.4,7.7c3.8,10.3,23.1,62.6,28.9,82c5.3,17.7,14.1,59.6,12.1,68.2C495.1,1339.8,473,1362.5,465.6,1369.3z
			 M464.5,1370.4c-0.5,0.4-0.8,0.7-1,0.8C463.8,1371,464.2,1370.7,464.5,1370.4z M344.2,1362.6L344.2,1362.6L344.2,1362.6z
			 M371.1,1322.3L371.1,1322.3C371.1,1322.4,371.1,1322.3,371.1,1322.3z M445,1189.3C445,1189.3,444.9,1189.3,445,1189.3
			C444.9,1189.3,445,1189.3,445,1189.3z M378.1,1186C378.1,1186,378.1,1186,378.1,1186C378.1,1186,378.1,1186,378.1,1186z
			 M631.4,1181.6C631.4,1181.6,631.4,1181.6,631.4,1181.6L631.4,1181.6z M584.6,1153.2C584.6,1153.2,584.6,1153.2,584.6,1153.2
			C584.6,1153.2,584.6,1153.2,584.6,1153.2z M574.7,1146.8c0,0-0.1,0.1-0.1,0.1L574.7,1146.8z M120.7,727.8
			C120.7,727.8,120.7,727.8,120.7,727.8C120.7,727.8,120.7,727.8,120.7,727.8z M42.1,720.2c0,0,0.1,0.1,0.1,0.1
			C42.2,720.3,42.1,720.3,42.1,720.2z M137.9,719.9l0,0.2C137.9,720,137.9,720,137.9,719.9z"/>
	</g>
	<path class="st7" d="M328.2,98.5c-11.2-13.9-49.3-7.4-74,12.5c-24.7,19.9-35.7,47.4-24.5,61.3c11.2,13.9,36.1,3.4,60.9-16.5
		C315.3,135.9,339.4,112.5,328.2,98.5z"/>
	<path class="st7" d="M219.4,191.2c-5.9-5.9-21.9-2-32.5,8.6c-10.5,10.5-14.3,23.9-8.3,29.8c5.9,5.9,18.5,0.3,29-10.2
		C218.2,208.8,225.3,197.1,219.4,191.2z"/>
</g>
</svg>
